<svg width="244" height="214" viewBox="0 0 244 214" fill="none" xmlns="http://www.w3.org/2000/svg">
    <rect x="0.5" y="1.5" width="243" height="212" fill="white" stroke="black"/>
    <rect x="0.5" y="1.5" width="243" height="30" fill="white" stroke="black"/>
    <line x1="126.5" y1="0.997653" x2="127.5" y2="213.998" stroke="black"/>
    <line y1="56.5" x2="244" y2="56.5" stroke="black"/>
    <line y1="81.5" x2="244" y2="81.5" stroke="black"/>
    <line y1="106.5" x2="244" y2="106.5" stroke="black"/>
    <path d="M23.6051 19.7188V23H22.767V15.7273H23.6051V18.3977H23.6761C23.804 18.116 23.9957 17.8923 24.2514 17.7266C24.5095 17.5585 24.8527 17.4744 25.2812 17.4744C25.6529 17.4744 25.9785 17.549 26.2578 17.6982C26.5372 17.8449 26.7538 18.071 26.9077 18.3764C27.0639 18.6795 27.142 19.0653 27.142 19.5341V23H26.304V19.5909C26.304 19.1577 26.1915 18.8227 25.9666 18.5859C25.7441 18.3468 25.4351 18.2273 25.0398 18.2273C24.7652 18.2273 24.5189 18.2853 24.3011 18.4013C24.0857 18.5173 23.9152 18.6866 23.7898 18.9091C23.6667 19.1316 23.6051 19.4015 23.6051 19.7188ZM30.9622 23.1136C30.4366 23.1136 29.9833 22.9976 29.6021 22.7656C29.2233 22.5312 28.9309 22.2045 28.725 21.7855C28.5214 21.3641 28.4196 20.8741 28.4196 20.3153C28.4196 19.7566 28.5214 19.2642 28.725 18.8381C28.9309 18.4096 29.2174 18.0758 29.5843 17.8366C29.9537 17.5952 30.3845 17.4744 30.877 17.4744C31.161 17.4744 31.4416 17.5218 31.7186 17.6165C31.9956 17.7112 32.2477 17.8651 32.475 18.0781C32.7022 18.2888 32.8833 18.5682 33.0183 18.9162C33.1532 19.2642 33.2207 19.6927 33.2207 20.2017V20.5568H29.0162V19.8324H32.3684C32.3684 19.5246 32.3069 19.25 32.1838 19.0085C32.063 18.767 31.8902 18.5765 31.6653 18.4368C31.4428 18.2971 31.18 18.2273 30.877 18.2273C30.5431 18.2273 30.2543 18.3101 30.0105 18.4759C29.769 18.6392 29.5832 18.8523 29.4529 19.1151C29.3227 19.3778 29.2576 19.6596 29.2576 19.9602V20.4432C29.2576 20.8551 29.3287 21.2043 29.4707 21.4908C29.6151 21.7749 29.8152 21.9915 30.0708 22.1406C30.3265 22.2874 30.6236 22.3608 30.9622 22.3608C31.1824 22.3608 31.3812 22.33 31.5588 22.2685C31.7387 22.2045 31.8938 22.1098 32.024 21.9844C32.1542 21.8565 32.2548 21.6979 32.3258 21.5085L33.1355 21.7358C33.0502 22.0104 32.907 22.2519 32.7058 22.4602C32.5046 22.6662 32.256 22.8272 31.96 22.9432C31.6641 23.0568 31.3315 23.1136 30.9622 23.1136ZM36.1007 23.1278C35.755 23.1278 35.4413 23.0627 35.1596 22.9325C34.8779 22.8 34.6542 22.6094 34.4885 22.3608C34.3227 22.1098 34.2399 21.8068 34.2399 21.4517C34.2399 21.1392 34.3014 20.8859 34.4245 20.6918C34.5476 20.4953 34.7122 20.3414 34.9181 20.2301C35.1241 20.1188 35.3514 20.036 35.6 19.9815C35.8509 19.9247 36.103 19.8797 36.3564 19.8466C36.6878 19.804 36.9565 19.772 37.1625 19.7507C37.3708 19.727 37.5223 19.688 37.617 19.6335C37.7141 19.5791 37.7626 19.4844 37.7626 19.3494V19.321C37.7626 18.9706 37.6667 18.6984 37.475 18.5043C37.2856 18.3101 36.9979 18.2131 36.612 18.2131C36.2119 18.2131 35.8983 18.3007 35.671 18.4759C35.4437 18.651 35.2839 18.8381 35.1916 19.0369L34.3961 18.7528C34.5382 18.4214 34.7276 18.1634 34.9643 17.9787C35.2034 17.7917 35.4638 17.6615 35.7456 17.5881C36.0297 17.5123 36.309 17.4744 36.5836 17.4744C36.7588 17.4744 36.96 17.4957 37.1873 17.5384C37.417 17.5786 37.6383 17.6626 37.8514 17.7905C38.0668 17.9183 38.2456 18.1113 38.3876 18.3693C38.5297 18.6274 38.6007 18.973 38.6007 19.4062V23H37.7626V22.2614H37.72C37.6632 22.3797 37.5685 22.5064 37.4359 22.6413C37.3033 22.7763 37.127 22.8911 36.9068 22.9858C36.6866 23.0805 36.4179 23.1278 36.1007 23.1278ZM36.2285 22.375C36.56 22.375 36.8393 22.3099 37.0666 22.1797C37.2962 22.0495 37.469 21.8814 37.585 21.6754C37.7034 21.4695 37.7626 21.2528 37.7626 21.0256V20.2585C37.7271 20.3011 37.649 20.3402 37.5282 20.3757C37.4099 20.4089 37.2725 20.4384 37.1163 20.4645C36.9624 20.4882 36.8121 20.5095 36.6653 20.5284C36.5209 20.545 36.4037 20.5592 36.3137 20.571C36.0959 20.5994 35.8923 20.6456 35.7029 20.7095C35.5159 20.7711 35.3644 20.8646 35.2484 20.9901C35.1348 21.1132 35.0779 21.2812 35.0779 21.4943C35.0779 21.7855 35.1857 22.0057 35.4011 22.1548C35.6189 22.3016 35.8947 22.375 36.2285 22.375ZM42.19 23.1136C41.7354 23.1136 41.3342 22.9988 40.9862 22.7692C40.6381 22.5372 40.3659 22.2105 40.1694 21.7891C39.9729 21.3653 39.8746 20.8646 39.8746 20.2869C39.8746 19.714 39.9729 19.2169 40.1694 18.7955C40.3659 18.3741 40.6393 18.0485 40.9897 17.8189C41.3401 17.5893 41.7449 17.4744 42.2042 17.4744C42.5593 17.4744 42.8398 17.5336 43.0458 17.652C43.2541 17.768 43.4128 17.9006 43.5217 18.0497C43.6329 18.1965 43.7193 18.3172 43.7809 18.4119H43.8519V15.7273H44.69V23H43.8803V22.1619H43.7809C43.7193 22.2614 43.6317 22.3868 43.5181 22.5384C43.4045 22.6875 43.2423 22.8213 43.0316 22.9396C42.8209 23.0556 42.5404 23.1136 42.19 23.1136ZM42.3036 22.3608C42.6398 22.3608 42.9239 22.2732 43.1559 22.098C43.3879 21.9205 43.5643 21.6754 43.685 21.3629C43.8058 21.0481 43.8661 20.6847 43.8661 20.2727C43.8661 19.8655 43.8069 19.5092 43.6886 19.2038C43.5702 18.8961 43.395 18.657 43.163 18.4865C42.931 18.3137 42.6445 18.2273 42.3036 18.2273C41.9485 18.2273 41.6526 18.3184 41.4158 18.5007C41.1815 18.6806 41.0051 18.9257 40.8867 19.2358C40.7707 19.5436 40.7127 19.8892 40.7127 20.2727C40.7127 20.661 40.7719 21.0137 40.8903 21.331C41.011 21.6458 41.1886 21.8968 41.4229 22.0838C41.6597 22.2685 41.9532 22.3608 42.3036 22.3608ZM48.6282 23.1136C48.1026 23.1136 47.6493 22.9976 47.2681 22.7656C46.8893 22.5312 46.5969 22.2045 46.391 21.7855C46.1874 21.3641 46.0856 20.8741 46.0856 20.3153C46.0856 19.7566 46.1874 19.2642 46.391 18.8381C46.5969 18.4096 46.8834 18.0758 47.2504 17.8366C47.6197 17.5952 48.0505 17.4744 48.543 17.4744C48.8271 17.4744 49.1076 17.5218 49.3846 17.6165C49.6616 17.7112 49.9137 17.8651 50.141 18.0781C50.3683 18.2888 50.5494 18.5682 50.6843 18.9162C50.8192 19.2642 50.8867 19.6927 50.8867 20.2017V20.5568H46.6822V19.8324H50.0344C50.0344 19.5246 49.9729 19.25 49.8498 19.0085C49.729 18.767 49.5562 18.5765 49.3313 18.4368C49.1088 18.2971 48.846 18.2273 48.543 18.2273C48.2092 18.2273 47.9203 18.3101 47.6765 18.4759C47.435 18.6392 47.2492 18.8523 47.119 19.1151C46.9888 19.3778 46.9237 19.6596 46.9237 19.9602V20.4432C46.9237 20.8551 46.9947 21.2043 47.1367 21.4908C47.2811 21.7749 47.4812 21.9915 47.7369 22.1406C47.9925 22.2874 48.2897 22.3608 48.6282 22.3608C48.8484 22.3608 49.0472 22.33 49.2248 22.2685C49.4047 22.2045 49.5598 22.1098 49.69 21.9844C49.8202 21.8565 49.9208 21.6979 49.9918 21.5085L50.8015 21.7358C50.7163 22.0104 50.573 22.2519 50.3718 22.4602C50.1706 22.6662 49.922 22.8272 49.6261 22.9432C49.3301 23.0568 48.9975 23.1136 48.6282 23.1136ZM52.1616 23V17.5455H52.9712V18.3693H53.0281C53.1275 18.0994 53.3074 17.8804 53.5678 17.7124C53.8282 17.5443 54.1218 17.4602 54.4485 17.4602C54.5101 17.4602 54.587 17.4614 54.6793 17.4638C54.7717 17.4661 54.8415 17.4697 54.8888 17.4744V18.3267C54.8604 18.3196 54.7953 18.3089 54.6935 18.2947C54.5941 18.2782 54.4888 18.2699 54.3775 18.2699C54.1123 18.2699 53.8756 18.3255 53.6673 18.4368C53.4613 18.5457 53.2979 18.6972 53.1772 18.8913C53.0588 19.0831 52.9996 19.3021 52.9996 19.5483V23H52.1616ZM59.7459 18.767L58.9931 18.9801C58.9457 18.8546 58.8759 18.7327 58.7836 18.6143C58.6936 18.4936 58.5705 18.3942 58.4142 18.3161C58.258 18.2379 58.0579 18.1989 57.8141 18.1989C57.4803 18.1989 57.2021 18.2758 56.9796 18.4297C56.7594 18.5812 56.6493 18.7741 56.6493 19.0085C56.6493 19.2169 56.7251 19.3814 56.8766 19.5021C57.0281 19.6229 57.2649 19.7235 57.5868 19.804L58.3965 20.0028C58.8842 20.1212 59.2476 20.3023 59.4867 20.5462C59.7258 20.7876 59.8453 21.099 59.8453 21.4801C59.8453 21.7926 59.7554 22.072 59.5755 22.3182C59.3979 22.5644 59.1493 22.7585 58.8297 22.9006C58.5101 23.0426 58.1384 23.1136 57.7147 23.1136C57.1583 23.1136 56.6979 22.9929 56.3333 22.7514C55.9687 22.5099 55.7379 22.1572 55.6408 21.6932L56.4363 21.4943C56.512 21.7879 56.6552 22.008 56.8659 22.1548C57.079 22.3016 57.3572 22.375 57.7005 22.375C58.0911 22.375 58.4012 22.2921 58.6309 22.1264C58.8629 21.9583 58.9789 21.7571 58.9789 21.5227C58.9789 21.3333 58.9126 21.1747 58.78 21.0469C58.6474 20.9167 58.4438 20.8196 58.1692 20.7557L57.2601 20.5426C56.7606 20.4242 56.3936 20.2408 56.1593 19.9922C55.9273 19.7412 55.8113 19.4276 55.8113 19.0511C55.8113 18.7434 55.8977 18.4711 56.0705 18.2344C56.2457 17.9976 56.4836 17.8118 56.7843 17.6768C57.0873 17.5419 57.4306 17.4744 57.8141 17.4744C58.3539 17.4744 58.7776 17.5928 59.0854 17.8295C59.3955 18.0663 59.6157 18.3788 59.7459 18.767Z"
          fill="black"/>
    <path d="M21.767 48V42.5455H22.6051V48H21.767ZM22.1932 41.6364C22.0298 41.6364 21.889 41.5807 21.7706 41.4695C21.6546 41.3582 21.5966 41.2244 21.5966 41.0682C21.5966 40.9119 21.6546 40.7782 21.7706 40.6669C21.889 40.5556 22.0298 40.5 22.1932 40.5C22.3565 40.5 22.4962 40.5556 22.6122 40.6669C22.7306 40.7782 22.7898 40.9119 22.7898 41.0682C22.7898 41.2244 22.7306 41.3582 22.6122 41.4695C22.4962 41.5807 22.3565 41.6364 22.1932 41.6364ZM24.9782 44.7188V48H24.1401V42.5455H24.9498V43.3977H25.0208C25.1486 43.1207 25.3427 42.8982 25.6032 42.7301C25.8636 42.5597 26.1998 42.4744 26.6117 42.4744C26.981 42.4744 27.3042 42.5502 27.5811 42.7017C27.8581 42.8509 28.0736 43.0781 28.2275 43.3835C28.3813 43.6866 28.4583 44.0701 28.4583 44.5341V48H27.6202V44.5909C27.6202 44.1624 27.5089 43.8286 27.2864 43.5895C27.0639 43.348 26.7585 43.2273 26.3702 43.2273C26.1027 43.2273 25.8636 43.2853 25.6529 43.4013C25.4445 43.5173 25.28 43.6866 25.1593 43.9091C25.0385 44.1316 24.9782 44.4015 24.9782 44.7188ZM32.0494 48.1136C31.5948 48.1136 31.1935 47.9988 30.8455 47.7692C30.4975 47.5372 30.2253 47.2105 30.0288 46.7891C29.8323 46.3653 29.734 45.8646 29.734 45.2869C29.734 44.714 29.8323 44.2169 30.0288 43.7955C30.2253 43.3741 30.4987 43.0485 30.8491 42.8189C31.1995 42.5893 31.6043 42.4744 32.0636 42.4744C32.4187 42.4744 32.6992 42.5336 32.9052 42.652C33.1135 42.768 33.2721 42.9006 33.381 43.0497C33.4923 43.1965 33.5787 43.3172 33.6403 43.4119H33.7113V40.7273H34.5494V48H33.7397V47.1619H33.6403C33.5787 47.2614 33.4911 47.3868 33.3775 47.5384C33.2638 47.6875 33.1017 47.8213 32.891 47.9396C32.6803 48.0556 32.3997 48.1136 32.0494 48.1136ZM32.163 47.3608C32.4992 47.3608 32.7833 47.2732 33.0153 47.098C33.2473 46.9205 33.4237 46.6754 33.5444 46.3629C33.6651 46.0481 33.7255 45.6847 33.7255 45.2727C33.7255 44.8655 33.6663 44.5092 33.5479 44.2038C33.4296 43.8961 33.2544 43.657 33.0224 43.4865C32.7904 43.3137 32.5039 43.2273 32.163 43.2273C31.8079 43.2273 31.512 43.3184 31.2752 43.5007C31.0408 43.6806 30.8645 43.9257 30.7461 44.2358C30.6301 44.5436 30.5721 44.8892 30.5721 45.2727C30.5721 45.661 30.6313 46.0137 30.7496 46.331C30.8704 46.6458 31.0479 46.8968 31.2823 47.0838C31.5191 47.2685 31.8126 47.3608 32.163 47.3608ZM38.4876 48.1136C37.962 48.1136 37.5086 47.9976 37.1275 47.7656C36.7487 47.5312 36.4563 47.2045 36.2504 46.7855C36.0468 46.3641 35.945 45.8741 35.945 45.3153C35.945 44.7566 36.0468 44.2642 36.2504 43.8381C36.4563 43.4096 36.7428 43.0758 37.1097 42.8366C37.479 42.5952 37.9099 42.4744 38.4023 42.4744C38.6864 42.4744 38.967 42.5218 39.244 42.6165C39.521 42.7112 39.7731 42.8651 40.0004 43.0781C40.2276 43.2888 40.4087 43.5682 40.5437 43.9162C40.6786 44.2642 40.7461 44.6927 40.7461 45.2017V45.5568H36.5415V44.8324H39.8938C39.8938 44.5246 39.8323 44.25 39.7092 44.0085C39.5884 43.767 39.4156 43.5765 39.1907 43.4368C38.9682 43.2971 38.7054 43.2273 38.4023 43.2273C38.0685 43.2273 37.7797 43.3101 37.5359 43.4759C37.2944 43.6392 37.1085 43.8523 36.9783 44.1151C36.8481 44.3778 36.783 44.6596 36.783 44.9602V45.4432C36.783 45.8551 36.854 46.2043 36.9961 46.4908C37.1405 46.7749 37.3406 46.9915 37.5962 47.1406C37.8519 47.2874 38.149 47.3608 38.4876 47.3608C38.7077 47.3608 38.9066 47.33 39.0842 47.2685C39.2641 47.2045 39.4192 47.1098 39.5494 46.9844C39.6796 46.8565 39.7802 46.6979 39.8512 46.5085L40.6609 46.7358C40.5756 47.0104 40.4324 47.2519 40.2312 47.4602C40.0299 47.6662 39.7814 47.8272 39.4854 47.9432C39.1895 48.0568 38.8569 48.1136 38.4876 48.1136ZM42.4995 42.5455L43.8063 44.7756L45.1131 42.5455H46.079L44.3176 45.2727L46.079 48H45.1131L43.8063 45.8835L42.4995 48H41.5336L43.2665 45.2727L41.5336 42.5455H42.4995ZM52.63 40.7273V48H51.7493V41.6506H51.7067L49.9311 42.8295V41.9347L51.7493 40.7273H52.63Z"
          fill="black"/>
    <path d="M20.767 73V67.5455H21.6051V73H20.767ZM21.1932 66.6364C21.0298 66.6364 20.889 66.5807 20.7706 66.4695C20.6546 66.3582 20.5966 66.2244 20.5966 66.0682C20.5966 65.9119 20.6546 65.7782 20.7706 65.6669C20.889 65.5556 21.0298 65.5 21.1932 65.5C21.3565 65.5 21.4962 65.5556 21.6122 65.6669C21.7306 65.7782 21.7898 65.9119 21.7898 66.0682C21.7898 66.2244 21.7306 66.3582 21.6122 66.4695C21.4962 66.5807 21.3565 66.6364 21.1932 66.6364ZM23.9782 69.7188V73H23.1401V67.5455H23.9498V68.3977H24.0208C24.1486 68.1207 24.3427 67.8982 24.6032 67.7301C24.8636 67.5597 25.1998 67.4744 25.6117 67.4744C25.981 67.4744 26.3042 67.5502 26.5811 67.7017C26.8581 67.8509 27.0736 68.0781 27.2275 68.3835C27.3813 68.6866 27.4583 69.0701 27.4583 69.5341V73H26.6202V69.5909C26.6202 69.1624 26.5089 68.8286 26.2864 68.5895C26.0639 68.348 25.7585 68.2273 25.3702 68.2273C25.1027 68.2273 24.8636 68.2853 24.6529 68.4013C24.4445 68.5173 24.28 68.6866 24.1593 68.9091C24.0385 69.1316 23.9782 69.4015 23.9782 69.7188ZM31.0494 73.1136C30.5948 73.1136 30.1935 72.9988 29.8455 72.7692C29.4975 72.5372 29.2253 72.2105 29.0288 71.7891C28.8323 71.3653 28.734 70.8646 28.734 70.2869C28.734 69.714 28.8323 69.2169 29.0288 68.7955C29.2253 68.3741 29.4987 68.0485 29.8491 67.8189C30.1995 67.5893 30.6043 67.4744 31.0636 67.4744C31.4187 67.4744 31.6992 67.5336 31.9052 67.652C32.1135 67.768 32.2721 67.9006 32.381 68.0497C32.4923 68.1965 32.5787 68.3172 32.6403 68.4119H32.7113V65.7273H33.5494V73H32.7397V72.1619H32.6403C32.5787 72.2614 32.4911 72.3868 32.3775 72.5384C32.2638 72.6875 32.1017 72.8213 31.891 72.9396C31.6803 73.0556 31.3997 73.1136 31.0494 73.1136ZM31.163 72.3608C31.4992 72.3608 31.7833 72.2732 32.0153 72.098C32.2473 71.9205 32.4237 71.6754 32.5444 71.3629C32.6651 71.0481 32.7255 70.6847 32.7255 70.2727C32.7255 69.8655 32.6663 69.5092 32.5479 69.2038C32.4296 68.8961 32.2544 68.657 32.0224 68.4865C31.7904 68.3137 31.5039 68.2273 31.163 68.2273C30.8079 68.2273 30.512 68.3184 30.2752 68.5007C30.0408 68.6806 29.8645 68.9257 29.7461 69.2358C29.6301 69.5436 29.5721 69.8892 29.5721 70.2727C29.5721 70.661 29.6313 71.0137 29.7496 71.331C29.8704 71.6458 30.0479 71.8968 30.2823 72.0838C30.5191 72.2685 30.8126 72.3608 31.163 72.3608ZM37.4876 73.1136C36.962 73.1136 36.5086 72.9976 36.1275 72.7656C35.7487 72.5312 35.4563 72.2045 35.2504 71.7855C35.0468 71.3641 34.945 70.8741 34.945 70.3153C34.945 69.7566 35.0468 69.2642 35.2504 68.8381C35.4563 68.4096 35.7428 68.0758 36.1097 67.8366C36.479 67.5952 36.9099 67.4744 37.4023 67.4744C37.6864 67.4744 37.967 67.5218 38.244 67.6165C38.521 67.7112 38.7731 67.8651 39.0004 68.0781C39.2276 68.2888 39.4087 68.5682 39.5437 68.9162C39.6786 69.2642 39.7461 69.6927 39.7461 70.2017V70.5568H35.5415V69.8324H38.8938C38.8938 69.5246 38.8323 69.25 38.7092 69.0085C38.5884 68.767 38.4156 68.5765 38.1907 68.4368C37.9682 68.2971 37.7054 68.2273 37.4023 68.2273C37.0685 68.2273 36.7797 68.3101 36.5359 68.4759C36.2944 68.6392 36.1085 68.8523 35.9783 69.1151C35.8481 69.3778 35.783 69.6596 35.783 69.9602V70.4432C35.783 70.8551 35.854 71.2043 35.9961 71.4908C36.1405 71.7749 36.3406 71.9915 36.5962 72.1406C36.8519 72.2874 37.149 72.3608 37.4876 72.3608C37.7077 72.3608 37.9066 72.33 38.0842 72.2685C38.2641 72.2045 38.4192 72.1098 38.5494 71.9844C38.6796 71.8565 38.7802 71.6979 38.8512 71.5085L39.6609 71.7358C39.5756 72.0104 39.4324 72.2519 39.2312 72.4602C39.0299 72.6662 38.7814 72.8272 38.4854 72.9432C38.1895 73.0568 37.8569 73.1136 37.4876 73.1136ZM41.4995 67.5455L42.8063 69.7756L44.1131 67.5455H45.079L43.3176 70.2727L45.079 73H44.1131L42.8063 70.8835L41.4995 73H40.5336L42.2665 70.2727L40.5336 67.5455H41.4995ZM49.0732 73V72.3608L51.4737 69.733C51.7554 69.4252 51.9875 69.1577 52.1697 68.9304C52.352 68.7008 52.487 68.4853 52.5746 68.2841C52.6645 68.0805 52.7095 67.8674 52.7095 67.6449C52.7095 67.3892 52.648 67.1679 52.5249 66.9808C52.4041 66.7938 52.2384 66.6494 52.0277 66.5476C51.817 66.4458 51.5803 66.3949 51.3175 66.3949C51.0381 66.3949 50.7943 66.4529 50.5859 66.5689C50.38 66.6825 50.2202 66.8423 50.1065 67.0483C49.9953 67.2543 49.9396 67.4957 49.9396 67.7727H49.1016C49.1016 67.3466 49.1998 66.9725 49.3963 66.6506C49.5928 66.3286 49.8603 66.0777 50.1989 65.8977C50.5398 65.7178 50.9221 65.6278 51.3459 65.6278C51.772 65.6278 52.1496 65.7178 52.4787 65.8977C52.8078 66.0777 53.0658 66.3203 53.2528 66.6257C53.4399 66.9311 53.5334 67.2708 53.5334 67.6449C53.5334 67.9124 53.4848 68.174 53.3878 68.4297C53.2931 68.683 53.1274 68.9659 52.8906 69.2784C52.6562 69.5885 52.3307 69.9673 51.9141 70.4148L50.2805 72.1619V72.2188H53.6612V73H49.0732Z"
          fill="black"/>
    <path d="M19.767 98V92.5455H20.6051V98H19.767ZM20.1932 91.6364C20.0298 91.6364 19.889 91.5807 19.7706 91.4695C19.6546 91.3582 19.5966 91.2244 19.5966 91.0682C19.5966 90.9119 19.6546 90.7782 19.7706 90.6669C19.889 90.5556 20.0298 90.5 20.1932 90.5C20.3565 90.5 20.4962 90.5556 20.6122 90.6669C20.7306 90.7782 20.7898 90.9119 20.7898 91.0682C20.7898 91.2244 20.7306 91.3582 20.6122 91.4695C20.4962 91.5807 20.3565 91.6364 20.1932 91.6364ZM22.9782 94.7188V98H22.1401V92.5455H22.9498V93.3977H23.0208C23.1486 93.1207 23.3427 92.8982 23.6032 92.7301C23.8636 92.5597 24.1998 92.4744 24.6117 92.4744C24.981 92.4744 25.3042 92.5502 25.5811 92.7017C25.8581 92.8509 26.0736 93.0781 26.2275 93.3835C26.3813 93.6866 26.4583 94.0701 26.4583 94.5341V98H25.6202V94.5909C25.6202 94.1624 25.5089 93.8286 25.2864 93.5895C25.0639 93.348 24.7585 93.2273 24.3702 93.2273C24.1027 93.2273 23.8636 93.2853 23.6529 93.4013C23.4445 93.5173 23.28 93.6866 23.1593 93.9091C23.0385 94.1316 22.9782 94.4015 22.9782 94.7188ZM30.0494 98.1136C29.5948 98.1136 29.1935 97.9988 28.8455 97.7692C28.4975 97.5372 28.2253 97.2105 28.0288 96.7891C27.8323 96.3653 27.734 95.8646 27.734 95.2869C27.734 94.714 27.8323 94.2169 28.0288 93.7955C28.2253 93.3741 28.4987 93.0485 28.8491 92.8189C29.1995 92.5893 29.6043 92.4744 30.0636 92.4744C30.4187 92.4744 30.6992 92.5336 30.9052 92.652C31.1135 92.768 31.2721 92.9006 31.381 93.0497C31.4923 93.1965 31.5787 93.3172 31.6403 93.4119H31.7113V90.7273H32.5494V98H31.7397V97.1619H31.6403C31.5787 97.2614 31.4911 97.3868 31.3775 97.5384C31.2638 97.6875 31.1017 97.8213 30.891 97.9396C30.6803 98.0556 30.3997 98.1136 30.0494 98.1136ZM30.163 97.3608C30.4992 97.3608 30.7833 97.2732 31.0153 97.098C31.2473 96.9205 31.4237 96.6754 31.5444 96.3629C31.6651 96.0481 31.7255 95.6847 31.7255 95.2727C31.7255 94.8655 31.6663 94.5092 31.5479 94.2038C31.4296 93.8961 31.2544 93.657 31.0224 93.4865C30.7904 93.3137 30.5039 93.2273 30.163 93.2273C29.8079 93.2273 29.512 93.3184 29.2752 93.5007C29.0408 93.6806 28.8645 93.9257 28.7461 94.2358C28.6301 94.5436 28.5721 94.8892 28.5721 95.2727C28.5721 95.661 28.6313 96.0137 28.7496 96.331C28.8704 96.6458 29.0479 96.8968 29.2823 97.0838C29.5191 97.2685 29.8126 97.3608 30.163 97.3608ZM36.4876 98.1136C35.962 98.1136 35.5086 97.9976 35.1275 97.7656C34.7487 97.5312 34.4563 97.2045 34.2504 96.7855C34.0468 96.3641 33.945 95.8741 33.945 95.3153C33.945 94.7566 34.0468 94.2642 34.2504 93.8381C34.4563 93.4096 34.7428 93.0758 35.1097 92.8366C35.479 92.5952 35.9099 92.4744 36.4023 92.4744C36.6864 92.4744 36.967 92.5218 37.244 92.6165C37.521 92.7112 37.7731 92.8651 38.0004 93.0781C38.2276 93.2888 38.4087 93.5682 38.5437 93.9162C38.6786 94.2642 38.7461 94.6927 38.7461 95.2017V95.5568H34.5415V94.8324H37.8938C37.8938 94.5246 37.8323 94.25 37.7092 94.0085C37.5884 93.767 37.4156 93.5765 37.1907 93.4368C36.9682 93.2971 36.7054 93.2273 36.4023 93.2273C36.0685 93.2273 35.7797 93.3101 35.5359 93.4759C35.2944 93.6392 35.1085 93.8523 34.9783 94.1151C34.8481 94.3778 34.783 94.6596 34.783 94.9602V95.4432C34.783 95.8551 34.854 96.2043 34.9961 96.4908C35.1405 96.7749 35.3406 96.9915 35.5962 97.1406C35.8519 97.2874 36.149 97.3608 36.4876 97.3608C36.7077 97.3608 36.9066 97.33 37.0842 97.2685C37.2641 97.2045 37.4192 97.1098 37.5494 96.9844C37.6796 96.8565 37.7802 96.6979 37.8512 96.5085L38.6609 96.7358C38.5756 97.0104 38.4324 97.2519 38.2312 97.4602C38.0299 97.6662 37.7814 97.8272 37.4854 97.9432C37.1895 98.0568 36.8569 98.1136 36.4876 98.1136ZM40.4995 92.5455L41.8063 94.7756L43.1131 92.5455H44.079L42.3176 95.2727L44.079 98H43.1131L41.8063 95.8835L40.4995 98H39.5336L41.2665 95.2727L39.5336 92.5455H40.4995ZM53.968 90.7273V98H53.1158L49.1527 92.2898H49.0817V98H48.201V90.7273H49.0533L53.0305 96.4517H53.1016V90.7273H53.968Z"
          fill="black"/>
    <path d="M23.5483 156.011L23.5341 154.974H23.7045L26.0909 152.545H27.1278L24.5852 155.116H24.5142L23.5483 156.011ZM22.767 158V150.727H23.6051V158H22.767ZM26.233 158L24.1023 155.301L24.6989 154.719L27.2983 158H26.233ZM30.2688 158.114C29.7433 158.114 29.2899 157.998 28.9087 157.766C28.5299 157.531 28.2376 157.205 28.0316 156.786C27.828 156.364 27.7262 155.874 27.7262 155.315C27.7262 154.757 27.828 154.264 28.0316 153.838C28.2376 153.41 28.524 153.076 28.891 152.837C29.2603 152.595 29.6912 152.474 30.1836 152.474C30.4677 152.474 30.7482 152.522 31.0252 152.616C31.3022 152.711 31.5543 152.865 31.7816 153.078C32.0089 153.289 32.19 153.568 32.3249 153.916C32.4599 154.264 32.5273 154.693 32.5273 155.202V155.557H28.3228V154.832H31.6751C31.6751 154.525 31.6135 154.25 31.4904 154.009C31.3697 153.767 31.1969 153.576 30.9719 153.437C30.7494 153.297 30.4866 153.227 30.1836 153.227C29.8498 153.227 29.561 153.31 29.3171 153.476C29.0756 153.639 28.8898 153.852 28.7596 154.115C28.6294 154.378 28.5643 154.66 28.5643 154.96V155.443C28.5643 155.855 28.6353 156.204 28.7773 156.491C28.9218 156.775 29.1218 156.991 29.3775 157.141C29.6332 157.287 29.9303 157.361 30.2688 157.361C30.489 157.361 30.6879 157.33 30.8654 157.268C31.0453 157.205 31.2004 157.11 31.3306 156.984C31.4608 156.857 31.5614 156.698 31.6325 156.509L32.4421 156.736C32.3569 157.01 32.2137 157.252 32.0124 157.46C31.8112 157.666 31.5626 157.827 31.2667 157.943C30.9708 158.057 30.6381 158.114 30.2688 158.114ZM34.176 160.045C34.0339 160.045 33.9073 160.034 33.796 160.01C33.6847 159.989 33.6078 159.967 33.5652 159.946L33.7782 159.207C33.9818 159.259 34.1618 159.278 34.318 159.264C34.4743 159.25 34.6127 159.18 34.7335 159.055C34.8566 158.932 34.969 158.732 35.0708 158.455L35.2271 158.028L33.21 152.545H34.1191L35.6248 156.892H35.6816L37.1873 152.545H38.0964L35.7811 158.795C35.6769 159.077 35.5479 159.31 35.394 159.495C35.2401 159.682 35.0614 159.821 34.8578 159.911C34.6565 160 34.4293 160.045 34.176 160.045ZM42.3276 154.491V155.273H39.1458V154.491H42.3276ZM48.2624 152.545L46.2454 158H45.3931L43.3761 152.545H44.2852L45.7908 156.892H45.8477L47.3533 152.545H48.2624ZM50.8077 158.128C50.4621 158.128 50.1484 158.063 49.8667 157.933C49.5849 157.8 49.3612 157.609 49.1955 157.361C49.0298 157.11 48.9469 156.807 48.9469 156.452C48.9469 156.139 49.0085 155.886 49.1316 155.692C49.2547 155.495 49.4192 155.341 49.6252 155.23C49.8311 155.119 50.0584 155.036 50.307 154.982C50.5579 154.925 50.8101 154.88 51.0634 154.847C51.3948 154.804 51.6635 154.772 51.8695 154.751C52.0778 154.727 52.2293 154.688 52.324 154.634C52.4211 154.579 52.4696 154.484 52.4696 154.349V154.321C52.4696 153.971 52.3738 153.698 52.182 153.504C51.9926 153.31 51.705 153.213 51.3191 153.213C50.919 153.213 50.6053 153.301 50.378 153.476C50.1507 153.651 49.9909 153.838 49.8986 154.037L49.1032 153.753C49.2452 153.421 49.4346 153.163 49.6713 152.979C49.9105 152.792 50.1709 152.661 50.4526 152.588C50.7367 152.512 51.016 152.474 51.2907 152.474C51.4658 152.474 51.6671 152.496 51.8944 152.538C52.124 152.579 52.3453 152.663 52.5584 152.79C52.7739 152.918 52.9526 153.111 53.0946 153.369C53.2367 153.627 53.3077 153.973 53.3077 154.406V158H52.4696V157.261H52.427C52.3702 157.38 52.2755 157.506 52.1429 157.641C52.0104 157.776 51.834 157.891 51.6138 157.986C51.3936 158.08 51.1249 158.128 50.8077 158.128ZM50.9355 157.375C51.267 157.375 51.5463 157.31 51.7736 157.18C52.0033 157.049 52.1761 156.881 52.2921 156.675C52.4105 156.469 52.4696 156.253 52.4696 156.026V155.259C52.4341 155.301 52.356 155.34 52.2353 155.376C52.1169 155.409 51.9796 155.438 51.8233 155.464C51.6694 155.488 51.5191 155.509 51.3723 155.528C51.2279 155.545 51.1107 155.559 51.0208 155.571C50.803 155.599 50.5994 155.646 50.41 155.71C50.223 155.771 50.0714 155.865 49.9554 155.99C49.8418 156.113 49.785 156.281 49.785 156.494C49.785 156.786 49.8927 157.006 50.1081 157.155C50.3259 157.302 50.6017 157.375 50.9355 157.375ZM55.6754 150.727V158H54.8374V150.727H55.6754ZM60.6479 155.77V152.545H61.486V158H60.6479V157.077H60.5911C60.4632 157.354 60.2644 157.589 59.9945 157.783C59.7246 157.975 59.3837 158.071 58.9718 158.071C58.6309 158.071 58.3278 157.996 58.0627 157.847C57.7975 157.696 57.5892 157.469 57.4377 157.165C57.2862 156.86 57.2104 156.475 57.2104 156.011V152.545H58.0485V155.955C58.0485 156.352 58.1597 156.67 58.3823 156.906C58.6072 157.143 58.8936 157.261 59.2417 157.261C59.45 157.261 59.6619 157.208 59.8773 157.102C60.0951 156.995 60.2774 156.832 60.4242 156.612C60.5733 156.391 60.6479 156.111 60.6479 155.77ZM65.3079 158.114C64.7823 158.114 64.329 157.998 63.9478 157.766C63.569 157.531 63.2766 157.205 63.0707 156.786C62.8671 156.364 62.7653 155.874 62.7653 155.315C62.7653 154.757 62.8671 154.264 63.0707 153.838C63.2766 153.41 63.5631 153.076 63.93 152.837C64.2994 152.595 64.7302 152.474 65.2227 152.474C65.5067 152.474 65.7873 152.522 66.0643 152.616C66.3413 152.711 66.5934 152.865 66.8207 153.078C67.0479 153.289 67.229 153.568 67.364 153.916C67.4989 154.264 67.5664 154.693 67.5664 155.202V155.557H63.3619V154.832H66.7141C66.7141 154.525 66.6526 154.25 66.5295 154.009C66.4087 153.767 66.2359 153.576 66.011 153.437C65.7885 153.297 65.5257 153.227 65.2227 153.227C64.8888 153.227 64.6 153.31 64.3562 153.476C64.1147 153.639 63.9289 153.852 63.7987 154.115C63.6684 154.378 63.6033 154.66 63.6033 154.96V155.443C63.6033 155.855 63.6744 156.204 63.8164 156.491C63.9608 156.775 64.1609 156.991 64.4165 157.141C64.6722 157.287 64.9693 157.361 65.3079 157.361C65.5281 157.361 65.7269 157.33 65.9045 157.268C66.0844 157.205 66.2395 157.11 66.3697 156.984C66.4999 156.857 66.6005 156.698 66.6715 156.509L67.4812 156.736C67.396 157.01 67.2527 157.252 67.0515 157.46C66.8503 157.666 66.6017 157.827 66.3058 157.943C66.0098 158.057 65.6772 158.114 65.3079 158.114ZM72.7049 153.767L71.9521 153.98C71.9047 153.855 71.8349 153.733 71.7425 153.614C71.6526 153.494 71.5295 153.394 71.3732 153.316C71.217 153.238 71.0169 153.199 70.7731 153.199C70.4393 153.199 70.1611 153.276 69.9386 153.43C69.7184 153.581 69.6083 153.774 69.6083 154.009C69.6083 154.217 69.6841 154.381 69.8356 154.502C69.9871 154.623 70.2238 154.723 70.5458 154.804L71.3555 155.003C71.8432 155.121 72.2066 155.302 72.4457 155.546C72.6848 155.788 72.8043 156.099 72.8043 156.48C72.8043 156.793 72.7144 157.072 72.5344 157.318C72.3569 157.564 72.1083 157.759 71.7887 157.901C71.4691 158.043 71.0974 158.114 70.6737 158.114C70.1173 158.114 69.6568 157.993 69.2923 157.751C68.9277 157.51 68.6969 157.157 68.5998 156.693L69.3952 156.494C69.471 156.788 69.6142 157.008 69.8249 157.155C70.038 157.302 70.3162 157.375 70.6594 157.375C71.0501 157.375 71.3602 157.292 71.5898 157.126C71.8219 156.958 71.9379 156.757 71.9379 156.523C71.9379 156.333 71.8716 156.175 71.739 156.047C71.6064 155.917 71.4028 155.82 71.1282 155.756L70.2191 155.543C69.7196 155.424 69.3526 155.241 69.1183 154.992C68.8862 154.741 68.7702 154.428 68.7702 154.051C68.7702 153.743 68.8567 153.471 69.0295 153.234C69.2047 152.998 69.4426 152.812 69.7433 152.677C70.0463 152.542 70.3896 152.474 70.7731 152.474C71.3129 152.474 71.7366 152.593 72.0444 152.83C72.3545 153.066 72.5747 153.379 72.7049 153.767Z"
          fill="black"/>
    <path d="M140.31 12.7273V20H139.429V13.6506H139.386L137.611 14.8295V13.9347L139.429 12.7273H140.31ZM144.773 20.0994C144.238 20.0994 143.783 19.9538 143.406 19.6626C143.03 19.3691 142.742 18.9441 142.543 18.3878C142.344 17.8291 142.245 17.1544 142.245 16.3636C142.245 15.5777 142.344 14.9065 142.543 14.3501C142.745 13.7914 143.033 13.3653 143.41 13.0717C143.789 12.7758 144.243 12.6278 144.773 12.6278C145.304 12.6278 145.757 12.7758 146.134 13.0717C146.512 13.3653 146.801 13.7914 147 14.3501C147.201 14.9065 147.302 15.5777 147.302 16.3636C147.302 17.1544 147.202 17.8291 147.004 18.3878C146.805 18.9441 146.517 19.3691 146.141 19.6626C145.764 19.9538 145.308 20.0994 144.773 20.0994ZM144.773 19.3182C145.304 19.3182 145.716 19.0625 146.009 18.5511C146.303 18.0398 146.45 17.3106 146.45 16.3636C146.45 15.7339 146.382 15.1977 146.247 14.755C146.115 14.3123 145.923 13.9749 145.672 13.7429C145.423 13.5109 145.124 13.3949 144.773 13.3949C144.248 13.3949 143.837 13.6541 143.541 14.1726C143.245 14.6887 143.097 15.419 143.097 16.3636C143.097 16.9934 143.164 17.5284 143.296 17.9688C143.429 18.4091 143.619 18.7441 143.868 18.9737C144.119 19.2034 144.421 19.3182 144.773 19.3182ZM151.023 20.0994C150.488 20.0994 150.033 19.9538 149.656 19.6626C149.28 19.3691 148.992 18.9441 148.793 18.3878C148.594 17.8291 148.495 17.1544 148.495 16.3636C148.495 15.5777 148.594 14.9065 148.793 14.3501C148.995 13.7914 149.283 13.3653 149.66 13.0717C150.039 12.7758 150.493 12.6278 151.023 12.6278C151.554 12.6278 152.007 12.7758 152.384 13.0717C152.762 13.3653 153.051 13.7914 153.25 14.3501C153.451 14.9065 153.552 15.5777 153.552 16.3636C153.552 17.1544 153.452 17.8291 153.254 18.3878C153.055 18.9441 152.767 19.3691 152.391 19.6626C152.014 19.9538 151.558 20.0994 151.023 20.0994ZM151.023 19.3182C151.554 19.3182 151.966 19.0625 152.259 18.5511C152.553 18.0398 152.7 17.3106 152.7 16.3636C152.7 15.7339 152.632 15.1977 152.497 14.755C152.365 14.3123 152.173 13.9749 151.922 13.7429C151.673 13.5109 151.374 13.3949 151.023 13.3949C150.498 13.3949 150.087 13.6541 149.791 14.1726C149.495 14.6887 149.347 15.419 149.347 16.3636C149.347 16.9934 149.414 17.5284 149.546 17.9688C149.679 18.4091 149.869 18.7441 150.118 18.9737C150.369 19.2034 150.671 19.3182 151.023 19.3182ZM157.842 20V12.7273H158.68V15.4119H158.751C158.812 15.3172 158.897 15.1965 159.006 15.0497C159.118 14.9006 159.276 14.768 159.482 14.652C159.691 14.5336 159.972 14.4744 160.327 14.4744C160.787 14.4744 161.192 14.5893 161.542 14.8189C161.892 15.0485 162.166 15.3741 162.362 15.7955C162.559 16.2169 162.657 16.714 162.657 17.2869C162.657 17.8646 162.559 18.3653 162.362 18.7891C162.166 19.2105 161.893 19.5372 161.545 19.7692C161.197 19.9988 160.796 20.1136 160.342 20.1136C159.991 20.1136 159.711 20.0556 159.5 19.9396C159.289 19.8213 159.127 19.6875 159.013 19.5384C158.9 19.3868 158.812 19.2614 158.751 19.1619H158.651V20H157.842ZM158.665 17.2727C158.665 17.6847 158.726 18.0481 158.847 18.3629C158.967 18.6754 159.144 18.9205 159.376 19.098C159.608 19.2732 159.892 19.3608 160.228 19.3608C160.578 19.3608 160.871 19.2685 161.105 19.0838C161.342 18.8968 161.519 18.6458 161.638 18.331C161.759 18.0137 161.819 17.661 161.819 17.2727C161.819 16.8892 161.76 16.5436 161.641 16.2358C161.525 15.9257 161.349 15.6806 161.112 15.5007C160.878 15.3184 160.583 15.2273 160.228 15.2273C159.887 15.2273 159.601 15.3137 159.369 15.4865C159.137 15.657 158.961 15.8961 158.843 16.2038C158.725 16.5092 158.665 16.8655 158.665 17.2727ZM164.283 22.0455C164.141 22.0455 164.015 22.0336 163.903 22.0099C163.792 21.9886 163.715 21.9673 163.673 21.946L163.886 21.2074C164.089 21.2595 164.269 21.2784 164.425 21.2642C164.582 21.25 164.72 21.1802 164.841 21.0547C164.964 20.9316 165.076 20.7315 165.178 20.4545L165.335 20.0284L163.317 14.5455H164.227L165.732 18.892H165.789L167.295 14.5455H168.204L165.888 20.7955C165.784 21.0772 165.655 21.3104 165.501 21.495C165.348 21.6821 165.169 21.8205 164.965 21.9105C164.764 22.0005 164.537 22.0455 164.283 22.0455ZM171.682 14.5455V15.2557H168.855V14.5455H171.682ZM169.679 13.2386H170.517V18.4375C170.517 18.6742 170.552 18.8518 170.62 18.9702C170.691 19.0862 170.781 19.1643 170.89 19.2045C171.002 19.2424 171.119 19.2614 171.242 19.2614C171.334 19.2614 171.41 19.2566 171.469 19.2472C171.528 19.2353 171.576 19.2259 171.611 19.2188L171.782 19.9716C171.725 19.9929 171.645 20.0142 171.544 20.0355C171.442 20.0592 171.313 20.071 171.157 20.071C170.92 20.071 170.688 20.0201 170.461 19.9183C170.236 19.8165 170.049 19.6615 169.9 19.4531C169.753 19.2448 169.679 18.982 169.679 18.6648V13.2386ZM175.171 20.1136C174.646 20.1136 174.192 19.9976 173.811 19.7656C173.432 19.5312 173.14 19.2045 172.934 18.7855C172.73 18.3641 172.629 17.8741 172.629 17.3153C172.629 16.7566 172.73 16.2642 172.934 15.8381C173.14 15.4096 173.426 15.0758 173.793 14.8366C174.163 14.5952 174.594 14.4744 175.086 14.4744C175.37 14.4744 175.651 14.5218 175.928 14.6165C176.205 14.7112 176.457 14.8651 176.684 15.0781C176.911 15.2888 177.092 15.5682 177.227 15.9162C177.362 16.2642 177.43 16.6927 177.43 17.2017V17.5568H173.225V16.8324H176.577C176.577 16.5246 176.516 16.25 176.393 16.0085C176.272 15.767 176.099 15.5765 175.874 15.4368C175.652 15.2971 175.389 15.2273 175.086 15.2273C174.752 15.2273 174.463 15.3101 174.219 15.4759C173.978 15.6392 173.792 15.8523 173.662 16.1151C173.532 16.3778 173.467 16.6596 173.467 16.9602V17.4432C173.467 17.8551 173.538 18.2043 173.68 18.4908C173.824 18.7749 174.024 18.9915 174.28 19.1406C174.536 19.2874 174.833 19.3608 175.171 19.3608C175.391 19.3608 175.59 19.33 175.768 19.2685C175.948 19.2045 176.103 19.1098 176.233 18.9844C176.363 18.8565 176.464 18.6979 176.535 18.5085L177.344 18.7358C177.259 19.0104 177.116 19.2519 176.915 19.4602C176.714 19.6662 176.465 19.8272 176.169 19.9432C175.873 20.0568 175.54 20.1136 175.171 20.1136ZM182.568 15.767L181.815 15.9801C181.768 15.8546 181.698 15.7327 181.606 15.6143C181.516 15.4936 181.393 15.3942 181.237 15.3161C181.08 15.2379 180.88 15.1989 180.636 15.1989C180.303 15.1989 180.024 15.2758 179.802 15.4297C179.582 15.5812 179.472 15.7741 179.472 16.0085C179.472 16.2169 179.547 16.3814 179.699 16.5021C179.85 16.6229 180.087 16.7235 180.409 16.804L181.219 17.0028C181.706 17.1212 182.07 17.3023 182.309 17.5462C182.548 17.7876 182.668 18.099 182.668 18.4801C182.668 18.7926 182.578 19.072 182.398 19.3182C182.22 19.5644 181.972 19.7585 181.652 19.9006C181.332 20.0426 180.961 20.1136 180.537 20.1136C179.981 20.1136 179.52 19.9929 179.156 19.7514C178.791 19.5099 178.56 19.1572 178.463 18.6932L179.259 18.4943C179.334 18.7879 179.478 19.008 179.688 19.1548C179.901 19.3016 180.179 19.375 180.523 19.375C180.913 19.375 181.223 19.2921 181.453 19.1264C181.685 18.9583 181.801 18.7571 181.801 18.5227C181.801 18.3333 181.735 18.1747 181.602 18.0469C181.47 17.9167 181.266 17.8196 180.991 17.7557L180.082 17.5426C179.583 17.4242 179.216 17.2408 178.982 16.9922C178.75 16.7412 178.634 16.4276 178.634 16.0511C178.634 15.7434 178.72 15.4711 178.893 15.2344C179.068 14.9976 179.306 14.8118 179.607 14.6768C179.91 14.5419 180.253 14.4744 180.636 14.4744C181.176 14.4744 181.6 14.5928 181.908 14.8295C182.218 15.0663 182.438 15.3788 182.568 15.767Z"
          fill="black"/>
    <path d="M137.582 46.5085V45.7841L140.778 40.7273H141.304V41.8494H140.949L138.534 45.6705V45.7273H142.838V46.5085H137.582ZM141.006 48V46.2884V45.951V40.7273H141.844V48H141.006ZM147.109 48V40.7273H147.947V43.4119H148.018C148.08 43.3172 148.165 43.1965 148.274 43.0497C148.385 42.9006 148.544 42.768 148.75 42.652C148.958 42.5336 149.24 42.4744 149.595 42.4744C150.054 42.4744 150.459 42.5893 150.809 42.8189C151.16 43.0485 151.433 43.3741 151.63 43.7955C151.826 44.2169 151.925 44.714 151.925 45.2869C151.925 45.8646 151.826 46.3653 151.63 46.7891C151.433 47.2105 151.161 47.5372 150.813 47.7692C150.465 47.9988 150.064 48.1136 149.609 48.1136C149.259 48.1136 148.978 48.0556 148.768 47.9396C148.557 47.8213 148.395 47.6875 148.281 47.5384C148.167 47.3868 148.08 47.2614 148.018 47.1619H147.919V48H147.109ZM147.933 45.2727C147.933 45.6847 147.993 46.0481 148.114 46.3629C148.235 46.6754 148.411 46.9205 148.643 47.098C148.875 47.2732 149.159 47.3608 149.496 47.3608C149.846 47.3608 150.138 47.2685 150.373 47.0838C150.609 46.8968 150.787 46.6458 150.905 46.331C151.026 46.0137 151.086 45.661 151.086 45.2727C151.086 44.8892 151.027 44.5436 150.909 44.2358C150.793 43.9257 150.617 43.6806 150.38 43.5007C150.145 43.3184 149.851 43.2273 149.496 43.2273C149.155 43.2273 148.868 43.3137 148.636 43.4865C148.404 43.657 148.229 43.8961 148.111 44.2038C147.992 44.5092 147.933 44.8655 147.933 45.2727ZM153.551 50.0455C153.409 50.0455 153.282 50.0336 153.171 50.0099C153.06 49.9886 152.983 49.9673 152.94 49.946L153.153 49.2074C153.357 49.2595 153.537 49.2784 153.693 49.2642C153.849 49.25 153.988 49.1802 154.108 49.0547C154.232 48.9316 154.344 48.7315 154.446 48.4545L154.602 48.0284L152.585 42.5455H153.494L155 46.892H155.057L156.562 42.5455H157.471L155.156 48.7955C155.052 49.0772 154.923 49.3104 154.769 49.495C154.615 49.6821 154.436 49.8205 154.233 49.9105C154.032 50.0005 153.804 50.0455 153.551 50.0455ZM160.95 42.5455V43.2557H158.123V42.5455H160.95ZM158.947 41.2386H159.785V46.4375C159.785 46.6742 159.819 46.8518 159.888 46.9702C159.959 47.0862 160.049 47.1643 160.158 47.2045C160.269 47.2424 160.386 47.2614 160.509 47.2614C160.602 47.2614 160.677 47.2566 160.737 47.2472C160.796 47.2353 160.843 47.2259 160.879 47.2188L161.049 47.9716C160.992 47.9929 160.913 48.0142 160.811 48.0355C160.709 48.0592 160.58 48.071 160.424 48.071C160.187 48.071 159.955 48.0201 159.728 47.9183C159.503 47.8165 159.316 47.6615 159.167 47.4531C159.02 47.2448 158.947 46.982 158.947 46.6648V41.2386ZM164.439 48.1136C163.913 48.1136 163.46 47.9976 163.079 47.7656C162.7 47.5312 162.407 47.2045 162.202 46.7855C161.998 46.3641 161.896 45.8741 161.896 45.3153C161.896 44.7566 161.998 44.2642 162.202 43.8381C162.407 43.4096 162.694 43.0758 163.061 42.8366C163.43 42.5952 163.861 42.4744 164.354 42.4744C164.638 42.4744 164.918 42.5218 165.195 42.6165C165.472 42.7112 165.724 42.8651 165.952 43.0781C166.179 43.2888 166.36 43.5682 166.495 43.9162C166.63 44.2642 166.697 44.6927 166.697 45.2017V45.5568H162.493V44.8324H165.845C165.845 44.5246 165.783 44.25 165.66 44.0085C165.54 43.767 165.367 43.5765 165.142 43.4368C164.919 43.2971 164.657 43.2273 164.354 43.2273C164.02 43.2273 163.731 43.3101 163.487 43.4759C163.246 43.6392 163.06 43.8523 162.93 44.1151C162.799 44.3778 162.734 44.6596 162.734 44.9602V45.4432C162.734 45.8551 162.805 46.2043 162.947 46.4908C163.092 46.7749 163.292 46.9915 163.547 47.1406C163.803 47.2874 164.1 47.3608 164.439 47.3608C164.659 47.3608 164.858 47.33 165.035 47.2685C165.215 47.2045 165.37 47.1098 165.501 46.9844C165.631 46.8565 165.731 46.6979 165.802 46.5085L166.612 46.7358C166.527 47.0104 166.384 47.2519 166.182 47.4602C165.981 47.6662 165.733 47.8272 165.437 47.9432C165.141 48.0568 164.808 48.1136 164.439 48.1136ZM171.836 43.767L171.083 43.9801C171.036 43.8546 170.966 43.7327 170.873 43.6143C170.783 43.4936 170.66 43.3942 170.504 43.3161C170.348 43.2379 170.148 43.1989 169.904 43.1989C169.57 43.1989 169.292 43.2758 169.069 43.4297C168.849 43.5812 168.739 43.7741 168.739 44.0085C168.739 44.2169 168.815 44.3814 168.966 44.5021C169.118 44.6229 169.355 44.7235 169.677 44.804L170.486 45.0028C170.974 45.1212 171.337 45.3023 171.577 45.5462C171.816 45.7876 171.935 46.099 171.935 46.4801C171.935 46.7926 171.845 47.072 171.665 47.3182C171.488 47.5644 171.239 47.7585 170.92 47.9006C170.6 48.0426 170.228 48.1136 169.805 48.1136C169.248 48.1136 168.788 47.9929 168.423 47.7514C168.059 47.5099 167.828 47.1572 167.731 46.6932L168.526 46.4943C168.602 46.7879 168.745 47.008 168.956 47.1548C169.169 47.3016 169.447 47.375 169.79 47.375C170.181 47.375 170.491 47.2921 170.721 47.1264C170.953 46.9583 171.069 46.7571 171.069 46.5227C171.069 46.3333 171.002 46.1747 170.87 46.0469C170.737 45.9167 170.534 45.8196 170.259 45.7557L169.35 45.5426C168.85 45.4242 168.483 45.2408 168.249 44.9922C168.017 44.7412 167.901 44.4276 167.901 44.0511C167.901 43.7434 167.988 43.4711 168.16 43.2344C168.336 42.9976 168.573 42.8118 168.874 42.6768C169.177 42.5419 169.52 42.4744 169.904 42.4744C170.444 42.4744 170.867 42.5928 171.175 42.8295C171.485 43.0663 171.706 43.3788 171.836 43.767ZM176.634 42.5455L177.941 44.7756L179.248 42.5455H180.214L178.452 45.2727L180.214 48H179.248L177.941 45.8835L176.634 48H175.668L177.401 45.2727L175.668 42.5455H176.634ZM184.336 48V40.7273H185.174V43.4119H185.245C185.306 43.3172 185.392 43.1965 185.501 43.0497C185.612 42.9006 185.77 42.768 185.976 42.652C186.185 42.5336 186.466 42.4744 186.822 42.4744C187.281 42.4744 187.686 42.5893 188.036 42.8189C188.386 43.0485 188.66 43.3741 188.856 43.7955C189.053 44.2169 189.151 44.714 189.151 45.2869C189.151 45.8646 189.053 46.3653 188.856 46.7891C188.66 47.2105 188.388 47.5372 188.04 47.7692C187.692 47.9988 187.29 48.1136 186.836 48.1136C186.485 48.1136 186.205 48.0556 185.994 47.9396C185.783 47.8213 185.621 47.6875 185.508 47.5384C185.394 47.3868 185.306 47.2614 185.245 47.1619H185.145V48H184.336ZM185.16 45.2727C185.16 45.6847 185.22 46.0481 185.341 46.3629C185.461 46.6754 185.638 46.9205 185.87 47.098C186.102 47.2732 186.386 47.3608 186.722 47.3608C187.073 47.3608 187.365 47.2685 187.599 47.0838C187.836 46.8968 188.014 46.6458 188.132 46.331C188.253 46.0137 188.313 45.661 188.313 45.2727C188.313 44.8892 188.254 44.5436 188.135 44.2358C188.019 43.9257 187.843 43.6806 187.606 43.5007C187.372 43.3184 187.077 43.2273 186.722 43.2273C186.381 43.2273 186.095 43.3137 185.863 43.4865C185.631 43.657 185.456 43.8961 185.337 44.2038C185.219 44.5092 185.16 44.8655 185.16 45.2727ZM191.271 40.7273V48H190.433V40.7273H191.271ZM195.022 48.1136C194.53 48.1136 194.098 47.9964 193.726 47.7621C193.357 47.5277 193.068 47.1998 192.859 46.7784C192.653 46.357 192.55 45.8646 192.55 45.3011C192.55 44.733 192.653 44.237 192.859 43.8132C193.068 43.3894 193.357 43.0604 193.726 42.826C194.098 42.5916 194.53 42.4744 195.022 42.4744C195.514 42.4744 195.945 42.5916 196.315 42.826C196.686 43.0604 196.975 43.3894 197.181 43.8132C197.389 44.237 197.494 44.733 197.494 45.3011C197.494 45.8646 197.389 46.357 197.181 46.7784C196.975 47.1998 196.686 47.5277 196.315 47.7621C195.945 47.9964 195.514 48.1136 195.022 48.1136ZM195.022 47.3608C195.396 47.3608 195.704 47.2649 195.945 47.0732C196.187 46.8814 196.366 46.6293 196.482 46.3168C196.598 46.0043 196.656 45.6657 196.656 45.3011C196.656 44.9366 196.598 44.5968 196.482 44.282C196.366 43.9671 196.187 43.7126 195.945 43.5185C195.704 43.3243 195.396 43.2273 195.022 43.2273C194.648 43.2273 194.34 43.3243 194.099 43.5185C193.857 43.7126 193.679 43.9671 193.562 44.282C193.446 44.5968 193.388 44.9366 193.388 45.3011C193.388 45.6657 193.446 46.0043 193.562 46.3168C193.679 46.6293 193.857 46.8814 194.099 47.0732C194.34 47.2649 194.648 47.3608 195.022 47.3608ZM200.989 48.1136C200.477 48.1136 200.037 47.9929 199.668 47.7514C199.298 47.5099 199.014 47.1773 198.816 46.7536C198.617 46.3298 198.517 45.8456 198.517 45.3011C198.517 44.7472 198.619 44.2583 198.823 43.8345C199.029 43.4084 199.315 43.0758 199.682 42.8366C200.051 42.5952 200.482 42.4744 200.975 42.4744C201.358 42.4744 201.704 42.5455 202.012 42.6875C202.319 42.8295 202.571 43.0284 202.768 43.2841C202.964 43.5398 203.086 43.8381 203.134 44.179H202.296C202.232 43.9304 202.09 43.7102 201.869 43.5185C201.652 43.3243 201.358 43.2273 200.989 43.2273C200.662 43.2273 200.376 43.3125 200.129 43.483C199.886 43.651 199.695 43.889 199.558 44.1967C199.423 44.5021 199.355 44.8608 199.355 45.2727C199.355 45.6941 199.422 46.0611 199.554 46.3736C199.689 46.6861 199.878 46.9287 200.122 47.1016C200.369 47.2744 200.657 47.3608 200.989 47.3608C201.207 47.3608 201.404 47.3229 201.582 47.2472C201.759 47.1714 201.91 47.0625 202.033 46.9205C202.156 46.7784 202.244 46.608 202.296 46.4091H203.134C203.086 46.7311 202.969 47.0211 202.782 47.2791C202.597 47.5348 202.352 47.7384 202.047 47.8899C201.744 48.0391 201.391 48.1136 200.989 48.1136ZM205.14 46.0114L205.126 44.9744H205.296L207.683 42.5455H208.72L206.177 45.1165H206.106L205.14 46.0114ZM204.359 48V40.7273H205.197V48H204.359ZM207.825 48L205.694 45.3011L206.291 44.7188L208.89 48H207.825ZM213.562 48V48.7812H209.017V48H213.562ZM218.183 43.767L217.431 43.9801C217.383 43.8546 217.313 43.7327 217.221 43.6143C217.131 43.4936 217.008 43.3942 216.852 43.3161C216.695 43.2379 216.495 43.1989 216.252 43.1989C215.918 43.1989 215.64 43.2758 215.417 43.4297C215.197 43.5812 215.087 43.7741 215.087 44.0085C215.087 44.2169 215.163 44.3814 215.314 44.5021C215.466 44.6229 215.702 44.7235 216.024 44.804L216.834 45.0028C217.322 45.1212 217.685 45.3023 217.924 45.5462C218.163 45.7876 218.283 46.099 218.283 46.4801C218.283 46.7926 218.193 47.072 218.013 47.3182C217.835 47.5644 217.587 47.7585 217.267 47.9006C216.948 48.0426 216.576 48.1136 216.152 48.1136C215.596 48.1136 215.135 47.9929 214.771 47.7514C214.406 47.5099 214.175 47.1572 214.078 46.6932L214.874 46.4943C214.95 46.7879 215.093 47.008 215.303 47.1548C215.517 47.3016 215.795 47.375 216.138 47.375C216.529 47.375 216.839 47.2921 217.068 47.1264C217.3 46.9583 217.416 46.7571 217.416 46.5227C217.416 46.3333 217.35 46.1747 217.218 46.0469C217.085 45.9167 216.881 45.8196 216.607 45.7557L215.698 45.5426C215.198 45.4242 214.831 45.2408 214.597 44.9922C214.365 44.7412 214.249 44.4276 214.249 44.0511C214.249 43.7434 214.335 43.4711 214.508 43.2344C214.683 42.9976 214.921 42.8118 215.222 42.6768C215.525 42.5419 215.868 42.4744 216.252 42.4744C216.791 42.4744 217.215 42.5928 217.523 42.8295C217.833 43.0663 218.053 43.3788 218.183 43.767ZM219.544 48V42.5455H220.382V48H219.544ZM219.971 41.6364C219.807 41.6364 219.666 41.5807 219.548 41.4695C219.432 41.3582 219.374 41.2244 219.374 41.0682C219.374 40.9119 219.432 40.7782 219.548 40.6669C219.666 40.5556 219.807 40.5 219.971 40.5C220.134 40.5 220.274 40.5556 220.39 40.6669C220.508 40.7782 220.567 40.9119 220.567 41.0682C220.567 41.2244 220.508 41.3582 220.39 41.4695C220.274 41.5807 220.134 41.6364 219.971 41.6364ZM221.761 48V47.3608L224.858 43.3835V43.3267H221.861V42.5455H225.937V43.2131L222.926 47.1619V47.2188H226.037V48H221.761ZM229.458 48.1136C228.933 48.1136 228.479 47.9976 228.098 47.7656C227.719 47.5312 227.427 47.2045 227.221 46.7855C227.017 46.3641 226.916 45.8741 226.916 45.3153C226.916 44.7566 227.017 44.2642 227.221 43.8381C227.427 43.4096 227.713 43.0758 228.08 42.8366C228.45 42.5952 228.881 42.4744 229.373 42.4744C229.657 42.4744 229.938 42.5218 230.215 42.6165C230.492 42.7112 230.744 42.8651 230.971 43.0781C231.198 43.2888 231.379 43.5682 231.514 43.9162C231.649 44.2642 231.717 44.6927 231.717 45.2017V45.5568H227.512V44.8324H230.865C230.865 44.5246 230.803 44.25 230.68 44.0085C230.559 43.767 230.386 43.5765 230.161 43.4368C229.939 43.2971 229.676 43.2273 229.373 43.2273C229.039 43.2273 228.75 43.3101 228.507 43.4759C228.265 43.6392 228.079 43.8523 227.949 44.1151C227.819 44.3778 227.754 44.6596 227.754 44.9602V45.4432C227.754 45.8551 227.825 46.2043 227.967 46.4908C228.111 46.7749 228.311 46.9915 228.567 47.1406C228.823 47.2874 229.12 47.3608 229.458 47.3608C229.678 47.3608 229.877 47.33 230.055 47.2685C230.235 47.2045 230.39 47.1098 230.52 46.9844C230.65 46.8565 230.751 46.6979 230.822 46.5085L231.632 46.7358C231.546 47.0104 231.403 47.2519 231.202 47.4602C231.001 47.6662 230.752 47.8272 230.456 47.9432C230.16 48.0568 229.828 48.1136 229.458 48.1136Z"
          fill="black"/>
    <path d="M137.582 68.5085V67.7841L140.778 62.7273H141.304V63.8494H140.949L138.534 67.6705V67.7273H142.838V68.5085H137.582ZM141.006 70V68.2884V67.951V62.7273H141.844V70H141.006ZM147.109 70V62.7273H147.947V65.4119H148.018C148.08 65.3172 148.165 65.1965 148.274 65.0497C148.385 64.9006 148.544 64.768 148.75 64.652C148.958 64.5336 149.24 64.4744 149.595 64.4744C150.054 64.4744 150.459 64.5893 150.809 64.8189C151.16 65.0485 151.433 65.3741 151.63 65.7955C151.826 66.2169 151.925 66.714 151.925 67.2869C151.925 67.8646 151.826 68.3653 151.63 68.7891C151.433 69.2105 151.161 69.5372 150.813 69.7692C150.465 69.9988 150.064 70.1136 149.609 70.1136C149.259 70.1136 148.978 70.0556 148.768 69.9396C148.557 69.8213 148.395 69.6875 148.281 69.5384C148.167 69.3868 148.08 69.2614 148.018 69.1619H147.919V70H147.109ZM147.933 67.2727C147.933 67.6847 147.993 68.0481 148.114 68.3629C148.235 68.6754 148.411 68.9205 148.643 69.098C148.875 69.2732 149.159 69.3608 149.496 69.3608C149.846 69.3608 150.138 69.2685 150.373 69.0838C150.609 68.8968 150.787 68.6458 150.905 68.331C151.026 68.0137 151.086 67.661 151.086 67.2727C151.086 66.8892 151.027 66.5436 150.909 66.2358C150.793 65.9257 150.617 65.6806 150.38 65.5007C150.145 65.3184 149.851 65.2273 149.496 65.2273C149.155 65.2273 148.868 65.3137 148.636 65.4865C148.404 65.657 148.229 65.8961 148.111 66.2038C147.992 66.5092 147.933 66.8655 147.933 67.2727ZM153.551 72.0455C153.409 72.0455 153.282 72.0336 153.171 72.0099C153.06 71.9886 152.983 71.9673 152.94 71.946L153.153 71.2074C153.357 71.2595 153.537 71.2784 153.693 71.2642C153.849 71.25 153.988 71.1802 154.108 71.0547C154.232 70.9316 154.344 70.7315 154.446 70.4545L154.602 70.0284L152.585 64.5455H153.494L155 68.892H155.057L156.562 64.5455H157.471L155.156 70.7955C155.052 71.0772 154.923 71.3104 154.769 71.495C154.615 71.6821 154.436 71.8205 154.233 71.9105C154.032 72.0005 153.804 72.0455 153.551 72.0455ZM160.95 64.5455V65.2557H158.123V64.5455H160.95ZM158.947 63.2386H159.785V68.4375C159.785 68.6742 159.819 68.8518 159.888 68.9702C159.959 69.0862 160.049 69.1643 160.158 69.2045C160.269 69.2424 160.386 69.2614 160.509 69.2614C160.602 69.2614 160.677 69.2566 160.737 69.2472C160.796 69.2353 160.843 69.2259 160.879 69.2188L161.049 69.9716C160.992 69.9929 160.913 70.0142 160.811 70.0355C160.709 70.0592 160.58 70.071 160.424 70.071C160.187 70.071 159.955 70.0201 159.728 69.9183C159.503 69.8165 159.316 69.6615 159.167 69.4531C159.02 69.2448 158.947 68.982 158.947 68.6648V63.2386ZM164.439 70.1136C163.913 70.1136 163.46 69.9976 163.079 69.7656C162.7 69.5312 162.407 69.2045 162.202 68.7855C161.998 68.3641 161.896 67.8741 161.896 67.3153C161.896 66.7566 161.998 66.2642 162.202 65.8381C162.407 65.4096 162.694 65.0758 163.061 64.8366C163.43 64.5952 163.861 64.4744 164.354 64.4744C164.638 64.4744 164.918 64.5218 165.195 64.6165C165.472 64.7112 165.724 64.8651 165.952 65.0781C166.179 65.2888 166.36 65.5682 166.495 65.9162C166.63 66.2642 166.697 66.6927 166.697 67.2017V67.5568H162.493V66.8324H165.845C165.845 66.5246 165.783 66.25 165.66 66.0085C165.54 65.767 165.367 65.5765 165.142 65.4368C164.919 65.2971 164.657 65.2273 164.354 65.2273C164.02 65.2273 163.731 65.3101 163.487 65.4759C163.246 65.6392 163.06 65.8523 162.93 66.1151C162.799 66.3778 162.734 66.6596 162.734 66.9602V67.4432C162.734 67.8551 162.805 68.2043 162.947 68.4908C163.092 68.7749 163.292 68.9915 163.547 69.1406C163.803 69.2874 164.1 69.3608 164.439 69.3608C164.659 69.3608 164.858 69.33 165.035 69.2685C165.215 69.2045 165.37 69.1098 165.501 68.9844C165.631 68.8565 165.731 68.6979 165.802 68.5085L166.612 68.7358C166.527 69.0104 166.384 69.2519 166.182 69.4602C165.981 69.6662 165.733 69.8272 165.437 69.9432C165.141 70.0568 164.808 70.1136 164.439 70.1136ZM171.836 65.767L171.083 65.9801C171.036 65.8546 170.966 65.7327 170.873 65.6143C170.783 65.4936 170.66 65.3942 170.504 65.3161C170.348 65.2379 170.148 65.1989 169.904 65.1989C169.57 65.1989 169.292 65.2758 169.069 65.4297C168.849 65.5812 168.739 65.7741 168.739 66.0085C168.739 66.2169 168.815 66.3814 168.966 66.5021C169.118 66.6229 169.355 66.7235 169.677 66.804L170.486 67.0028C170.974 67.1212 171.337 67.3023 171.577 67.5462C171.816 67.7876 171.935 68.099 171.935 68.4801C171.935 68.7926 171.845 69.072 171.665 69.3182C171.488 69.5644 171.239 69.7585 170.92 69.9006C170.6 70.0426 170.228 70.1136 169.805 70.1136C169.248 70.1136 168.788 69.9929 168.423 69.7514C168.059 69.5099 167.828 69.1572 167.731 68.6932L168.526 68.4943C168.602 68.7879 168.745 69.008 168.956 69.1548C169.169 69.3016 169.447 69.375 169.79 69.375C170.181 69.375 170.491 69.2921 170.721 69.1264C170.953 68.9583 171.069 68.7571 171.069 68.5227C171.069 68.3333 171.002 68.1747 170.87 68.0469C170.737 67.9167 170.534 67.8196 170.259 67.7557L169.35 67.5426C168.85 67.4242 168.483 67.2408 168.249 66.9922C168.017 66.7412 167.901 66.4276 167.901 66.0511C167.901 65.7434 167.988 65.4711 168.16 65.2344C168.336 64.9976 168.573 64.8118 168.874 64.6768C169.177 64.5419 169.52 64.4744 169.904 64.4744C170.444 64.4744 170.867 64.5928 171.175 64.8295C171.485 65.0663 171.706 65.3788 171.836 65.767ZM176.634 64.5455L177.941 66.7756L179.248 64.5455H180.214L178.452 67.2727L180.214 70H179.248L177.941 67.8835L176.634 70H175.668L177.401 67.2727L175.668 64.5455H176.634ZM184.336 70V62.7273H185.174V65.4119H185.245C185.306 65.3172 185.392 65.1965 185.501 65.0497C185.612 64.9006 185.77 64.768 185.976 64.652C186.185 64.5336 186.466 64.4744 186.822 64.4744C187.281 64.4744 187.686 64.5893 188.036 64.8189C188.386 65.0485 188.66 65.3741 188.856 65.7955C189.053 66.2169 189.151 66.714 189.151 67.2869C189.151 67.8646 189.053 68.3653 188.856 68.7891C188.66 69.2105 188.388 69.5372 188.04 69.7692C187.692 69.9988 187.29 70.1136 186.836 70.1136C186.485 70.1136 186.205 70.0556 185.994 69.9396C185.783 69.8213 185.621 69.6875 185.508 69.5384C185.394 69.3868 185.306 69.2614 185.245 69.1619H185.145V70H184.336ZM185.16 67.2727C185.16 67.6847 185.22 68.0481 185.341 68.3629C185.461 68.6754 185.638 68.9205 185.87 69.098C186.102 69.2732 186.386 69.3608 186.722 69.3608C187.073 69.3608 187.365 69.2685 187.599 69.0838C187.836 68.8968 188.014 68.6458 188.132 68.331C188.253 68.0137 188.313 67.661 188.313 67.2727C188.313 66.8892 188.254 66.5436 188.135 66.2358C188.019 65.9257 187.843 65.6806 187.606 65.5007C187.372 65.3184 187.077 65.2273 186.722 65.2273C186.381 65.2273 186.095 65.3137 185.863 65.4865C185.631 65.657 185.456 65.8961 185.337 66.2038C185.219 66.5092 185.16 66.8655 185.16 67.2727ZM191.271 62.7273V70H190.433V62.7273H191.271ZM195.022 70.1136C194.53 70.1136 194.098 69.9964 193.726 69.7621C193.357 69.5277 193.068 69.1998 192.859 68.7784C192.653 68.357 192.55 67.8646 192.55 67.3011C192.55 66.733 192.653 66.237 192.859 65.8132C193.068 65.3894 193.357 65.0604 193.726 64.826C194.098 64.5916 194.53 64.4744 195.022 64.4744C195.514 64.4744 195.945 64.5916 196.315 64.826C196.686 65.0604 196.975 65.3894 197.181 65.8132C197.389 66.237 197.494 66.733 197.494 67.3011C197.494 67.8646 197.389 68.357 197.181 68.7784C196.975 69.1998 196.686 69.5277 196.315 69.7621C195.945 69.9964 195.514 70.1136 195.022 70.1136ZM195.022 69.3608C195.396 69.3608 195.704 69.2649 195.945 69.0732C196.187 68.8814 196.366 68.6293 196.482 68.3168C196.598 68.0043 196.656 67.6657 196.656 67.3011C196.656 66.9366 196.598 66.5968 196.482 66.282C196.366 65.9671 196.187 65.7126 195.945 65.5185C195.704 65.3243 195.396 65.2273 195.022 65.2273C194.648 65.2273 194.34 65.3243 194.099 65.5185C193.857 65.7126 193.679 65.9671 193.562 66.282C193.446 66.5968 193.388 66.9366 193.388 67.3011C193.388 67.6657 193.446 68.0043 193.562 68.3168C193.679 68.6293 193.857 68.8814 194.099 69.0732C194.34 69.2649 194.648 69.3608 195.022 69.3608ZM200.989 70.1136C200.477 70.1136 200.037 69.9929 199.668 69.7514C199.298 69.5099 199.014 69.1773 198.816 68.7536C198.617 68.3298 198.517 67.8456 198.517 67.3011C198.517 66.7472 198.619 66.2583 198.823 65.8345C199.029 65.4084 199.315 65.0758 199.682 64.8366C200.051 64.5952 200.482 64.4744 200.975 64.4744C201.358 64.4744 201.704 64.5455 202.012 64.6875C202.319 64.8295 202.571 65.0284 202.768 65.2841C202.964 65.5398 203.086 65.8381 203.134 66.179H202.296C202.232 65.9304 202.09 65.7102 201.869 65.5185C201.652 65.3243 201.358 65.2273 200.989 65.2273C200.662 65.2273 200.376 65.3125 200.129 65.483C199.886 65.651 199.695 65.889 199.558 66.1967C199.423 66.5021 199.355 66.8608 199.355 67.2727C199.355 67.6941 199.422 68.0611 199.554 68.3736C199.689 68.6861 199.878 68.9287 200.122 69.1016C200.369 69.2744 200.657 69.3608 200.989 69.3608C201.207 69.3608 201.404 69.3229 201.582 69.2472C201.759 69.1714 201.91 69.0625 202.033 68.9205C202.156 68.7784 202.244 68.608 202.296 68.4091H203.134C203.086 68.7311 202.969 69.0211 202.782 69.2791C202.597 69.5348 202.352 69.7384 202.047 69.8899C201.744 70.0391 201.391 70.1136 200.989 70.1136ZM205.14 68.0114L205.126 66.9744H205.296L207.683 64.5455H208.72L206.177 67.1165H206.106L205.14 68.0114ZM204.359 70V62.7273H205.197V70H204.359ZM207.825 70L205.694 67.3011L206.291 66.7188L208.89 70H207.825ZM213.562 70V70.7812H209.017V70H213.562ZM218.183 65.767L217.431 65.9801C217.383 65.8546 217.313 65.7327 217.221 65.6143C217.131 65.4936 217.008 65.3942 216.852 65.3161C216.695 65.2379 216.495 65.1989 216.252 65.1989C215.918 65.1989 215.64 65.2758 215.417 65.4297C215.197 65.5812 215.087 65.7741 215.087 66.0085C215.087 66.2169 215.163 66.3814 215.314 66.5021C215.466 66.6229 215.702 66.7235 216.024 66.804L216.834 67.0028C217.322 67.1212 217.685 67.3023 217.924 67.5462C218.163 67.7876 218.283 68.099 218.283 68.4801C218.283 68.7926 218.193 69.072 218.013 69.3182C217.835 69.5644 217.587 69.7585 217.267 69.9006C216.948 70.0426 216.576 70.1136 216.152 70.1136C215.596 70.1136 215.135 69.9929 214.771 69.7514C214.406 69.5099 214.175 69.1572 214.078 68.6932L214.874 68.4943C214.95 68.7879 215.093 69.008 215.303 69.1548C215.517 69.3016 215.795 69.375 216.138 69.375C216.529 69.375 216.839 69.2921 217.068 69.1264C217.3 68.9583 217.416 68.7571 217.416 68.5227C217.416 68.3333 217.35 68.1747 217.218 68.0469C217.085 67.9167 216.881 67.8196 216.607 67.7557L215.698 67.5426C215.198 67.4242 214.831 67.2408 214.597 66.9922C214.365 66.7412 214.249 66.4276 214.249 66.0511C214.249 65.7434 214.335 65.4711 214.508 65.2344C214.683 64.9976 214.921 64.8118 215.222 64.6768C215.525 64.5419 215.868 64.4744 216.252 64.4744C216.791 64.4744 217.215 64.5928 217.523 64.8295C217.833 65.0663 218.053 65.3788 218.183 65.767ZM219.544 70V64.5455H220.382V70H219.544ZM219.971 63.6364C219.807 63.6364 219.666 63.5807 219.548 63.4695C219.432 63.3582 219.374 63.2244 219.374 63.0682C219.374 62.9119 219.432 62.7782 219.548 62.6669C219.666 62.5556 219.807 62.5 219.971 62.5C220.134 62.5 220.274 62.5556 220.39 62.6669C220.508 62.7782 220.567 62.9119 220.567 63.0682C220.567 63.2244 220.508 63.3582 220.39 63.4695C220.274 63.5807 220.134 63.6364 219.971 63.6364ZM221.761 70V69.3608L224.858 65.3835V65.3267H221.861V64.5455H225.937V65.2131L222.926 69.1619V69.2188H226.037V70H221.761ZM229.458 70.1136C228.933 70.1136 228.479 69.9976 228.098 69.7656C227.719 69.5312 227.427 69.2045 227.221 68.7855C227.017 68.3641 226.916 67.8741 226.916 67.3153C226.916 66.7566 227.017 66.2642 227.221 65.8381C227.427 65.4096 227.713 65.0758 228.08 64.8366C228.45 64.5952 228.881 64.4744 229.373 64.4744C229.657 64.4744 229.938 64.5218 230.215 64.6165C230.492 64.7112 230.744 64.8651 230.971 65.0781C231.198 65.2888 231.379 65.5682 231.514 65.9162C231.649 66.2642 231.717 66.6927 231.717 67.2017V67.5568H227.512V66.8324H230.865C230.865 66.5246 230.803 66.25 230.68 66.0085C230.559 65.767 230.386 65.5765 230.161 65.4368C229.939 65.2971 229.676 65.2273 229.373 65.2273C229.039 65.2273 228.75 65.3101 228.507 65.4759C228.265 65.6392 228.079 65.8523 227.949 66.1151C227.819 66.3778 227.754 66.6596 227.754 66.9602V67.4432C227.754 67.8551 227.825 68.2043 227.967 68.4908C228.111 68.7749 228.311 68.9915 228.567 69.1406C228.823 69.2874 229.12 69.3608 229.458 69.3608C229.678 69.3608 229.877 69.33 230.055 69.2685C230.235 69.2045 230.39 69.1098 230.52 68.9844C230.65 68.8565 230.751 68.6979 230.822 68.5085L231.632 68.7358C231.546 69.0104 231.403 69.2519 231.202 69.4602C231.001 69.6662 230.752 69.8272 230.456 69.9432C230.16 70.0568 229.828 70.1136 229.458 70.1136Z"
          fill="black"/>
    <path d="M137.582 96.5085V95.7841L140.778 90.7273H141.304V91.8494H140.949L138.534 95.6705V95.7273H142.838V96.5085H137.582ZM141.006 98V96.2884V95.951V90.7273H141.844V98H141.006ZM147.109 98V90.7273H147.947V93.4119H148.018C148.08 93.3172 148.165 93.1965 148.274 93.0497C148.385 92.9006 148.544 92.768 148.75 92.652C148.958 92.5336 149.24 92.4744 149.595 92.4744C150.054 92.4744 150.459 92.5893 150.809 92.8189C151.16 93.0485 151.433 93.3741 151.63 93.7955C151.826 94.2169 151.925 94.714 151.925 95.2869C151.925 95.8646 151.826 96.3653 151.63 96.7891C151.433 97.2105 151.161 97.5372 150.813 97.7692C150.465 97.9988 150.064 98.1136 149.609 98.1136C149.259 98.1136 148.978 98.0556 148.768 97.9396C148.557 97.8213 148.395 97.6875 148.281 97.5384C148.167 97.3868 148.08 97.2614 148.018 97.1619H147.919V98H147.109ZM147.933 95.2727C147.933 95.6847 147.993 96.0481 148.114 96.3629C148.235 96.6754 148.411 96.9205 148.643 97.098C148.875 97.2732 149.159 97.3608 149.496 97.3608C149.846 97.3608 150.138 97.2685 150.373 97.0838C150.609 96.8968 150.787 96.6458 150.905 96.331C151.026 96.0137 151.086 95.661 151.086 95.2727C151.086 94.8892 151.027 94.5436 150.909 94.2358C150.793 93.9257 150.617 93.6806 150.38 93.5007C150.145 93.3184 149.851 93.2273 149.496 93.2273C149.155 93.2273 148.868 93.3137 148.636 93.4865C148.404 93.657 148.229 93.8961 148.111 94.2038C147.992 94.5092 147.933 94.8655 147.933 95.2727ZM153.551 100.045C153.409 100.045 153.282 100.034 153.171 100.01C153.06 99.9886 152.983 99.9673 152.94 99.946L153.153 99.2074C153.357 99.2595 153.537 99.2784 153.693 99.2642C153.849 99.25 153.988 99.1802 154.108 99.0547C154.232 98.9316 154.344 98.7315 154.446 98.4545L154.602 98.0284L152.585 92.5455H153.494L155 96.892H155.057L156.562 92.5455H157.471L155.156 98.7955C155.052 99.0772 154.923 99.3104 154.769 99.495C154.615 99.6821 154.436 99.8205 154.233 99.9105C154.032 100 153.804 100.045 153.551 100.045ZM160.95 92.5455V93.2557H158.123V92.5455H160.95ZM158.947 91.2386H159.785V96.4375C159.785 96.6742 159.819 96.8518 159.888 96.9702C159.959 97.0862 160.049 97.1643 160.158 97.2045C160.269 97.2424 160.386 97.2614 160.509 97.2614C160.602 97.2614 160.677 97.2566 160.737 97.2472C160.796 97.2353 160.843 97.2259 160.879 97.2188L161.049 97.9716C160.992 97.9929 160.913 98.0142 160.811 98.0355C160.709 98.0592 160.58 98.071 160.424 98.071C160.187 98.071 159.955 98.0201 159.728 97.9183C159.503 97.8165 159.316 97.6615 159.167 97.4531C159.02 97.2448 158.947 96.982 158.947 96.6648V91.2386ZM164.439 98.1136C163.913 98.1136 163.46 97.9976 163.079 97.7656C162.7 97.5312 162.407 97.2045 162.202 96.7855C161.998 96.3641 161.896 95.8741 161.896 95.3153C161.896 94.7566 161.998 94.2642 162.202 93.8381C162.407 93.4096 162.694 93.0758 163.061 92.8366C163.43 92.5952 163.861 92.4744 164.354 92.4744C164.638 92.4744 164.918 92.5218 165.195 92.6165C165.472 92.7112 165.724 92.8651 165.952 93.0781C166.179 93.2888 166.36 93.5682 166.495 93.9162C166.63 94.2642 166.697 94.6927 166.697 95.2017V95.5568H162.493V94.8324H165.845C165.845 94.5246 165.783 94.25 165.66 94.0085C165.54 93.767 165.367 93.5765 165.142 93.4368C164.919 93.2971 164.657 93.2273 164.354 93.2273C164.02 93.2273 163.731 93.3101 163.487 93.4759C163.246 93.6392 163.06 93.8523 162.93 94.1151C162.799 94.3778 162.734 94.6596 162.734 94.9602V95.4432C162.734 95.8551 162.805 96.2043 162.947 96.4908C163.092 96.7749 163.292 96.9915 163.547 97.1406C163.803 97.2874 164.1 97.3608 164.439 97.3608C164.659 97.3608 164.858 97.33 165.035 97.2685C165.215 97.2045 165.37 97.1098 165.501 96.9844C165.631 96.8565 165.731 96.6979 165.802 96.5085L166.612 96.7358C166.527 97.0104 166.384 97.2519 166.182 97.4602C165.981 97.6662 165.733 97.8272 165.437 97.9432C165.141 98.0568 164.808 98.1136 164.439 98.1136ZM171.836 93.767L171.083 93.9801C171.036 93.8546 170.966 93.7327 170.873 93.6143C170.783 93.4936 170.66 93.3942 170.504 93.3161C170.348 93.2379 170.148 93.1989 169.904 93.1989C169.57 93.1989 169.292 93.2758 169.069 93.4297C168.849 93.5812 168.739 93.7741 168.739 94.0085C168.739 94.2169 168.815 94.3814 168.966 94.5021C169.118 94.6229 169.355 94.7235 169.677 94.804L170.486 95.0028C170.974 95.1212 171.337 95.3023 171.577 95.5462C171.816 95.7876 171.935 96.099 171.935 96.4801C171.935 96.7926 171.845 97.072 171.665 97.3182C171.488 97.5644 171.239 97.7585 170.92 97.9006C170.6 98.0426 170.228 98.1136 169.805 98.1136C169.248 98.1136 168.788 97.9929 168.423 97.7514C168.059 97.5099 167.828 97.1572 167.731 96.6932L168.526 96.4943C168.602 96.7879 168.745 97.008 168.956 97.1548C169.169 97.3016 169.447 97.375 169.79 97.375C170.181 97.375 170.491 97.2921 170.721 97.1264C170.953 96.9583 171.069 96.7571 171.069 96.5227C171.069 96.3333 171.002 96.1747 170.87 96.0469C170.737 95.9167 170.534 95.8196 170.259 95.7557L169.35 95.5426C168.85 95.4242 168.483 95.2408 168.249 94.9922C168.017 94.7412 167.901 94.4276 167.901 94.0511C167.901 93.7434 167.988 93.4711 168.16 93.2344C168.336 92.9976 168.573 92.8118 168.874 92.6768C169.177 92.5419 169.52 92.4744 169.904 92.4744C170.444 92.4744 170.867 92.5928 171.175 92.8295C171.485 93.0663 171.706 93.3788 171.836 93.767ZM176.634 92.5455L177.941 94.7756L179.248 92.5455H180.214L178.452 95.2727L180.214 98H179.248L177.941 95.8835L176.634 98H175.668L177.401 95.2727L175.668 92.5455H176.634ZM184.336 98V90.7273H185.174V93.4119H185.245C185.306 93.3172 185.392 93.1965 185.501 93.0497C185.612 92.9006 185.77 92.768 185.976 92.652C186.185 92.5336 186.466 92.4744 186.822 92.4744C187.281 92.4744 187.686 92.5893 188.036 92.8189C188.386 93.0485 188.66 93.3741 188.856 93.7955C189.053 94.2169 189.151 94.714 189.151 95.2869C189.151 95.8646 189.053 96.3653 188.856 96.7891C188.66 97.2105 188.388 97.5372 188.04 97.7692C187.692 97.9988 187.29 98.1136 186.836 98.1136C186.485 98.1136 186.205 98.0556 185.994 97.9396C185.783 97.8213 185.621 97.6875 185.508 97.5384C185.394 97.3868 185.306 97.2614 185.245 97.1619H185.145V98H184.336ZM185.16 95.2727C185.16 95.6847 185.22 96.0481 185.341 96.3629C185.461 96.6754 185.638 96.9205 185.87 97.098C186.102 97.2732 186.386 97.3608 186.722 97.3608C187.073 97.3608 187.365 97.2685 187.599 97.0838C187.836 96.8968 188.014 96.6458 188.132 96.331C188.253 96.0137 188.313 95.661 188.313 95.2727C188.313 94.8892 188.254 94.5436 188.135 94.2358C188.019 93.9257 187.843 93.6806 187.606 93.5007C187.372 93.3184 187.077 93.2273 186.722 93.2273C186.381 93.2273 186.095 93.3137 185.863 93.4865C185.631 93.657 185.456 93.8961 185.337 94.2038C185.219 94.5092 185.16 94.8655 185.16 95.2727ZM191.271 90.7273V98H190.433V90.7273H191.271ZM195.022 98.1136C194.53 98.1136 194.098 97.9964 193.726 97.7621C193.357 97.5277 193.068 97.1998 192.859 96.7784C192.653 96.357 192.55 95.8646 192.55 95.3011C192.55 94.733 192.653 94.237 192.859 93.8132C193.068 93.3894 193.357 93.0604 193.726 92.826C194.098 92.5916 194.53 92.4744 195.022 92.4744C195.514 92.4744 195.945 92.5916 196.315 92.826C196.686 93.0604 196.975 93.3894 197.181 93.8132C197.389 94.237 197.494 94.733 197.494 95.3011C197.494 95.8646 197.389 96.357 197.181 96.7784C196.975 97.1998 196.686 97.5277 196.315 97.7621C195.945 97.9964 195.514 98.1136 195.022 98.1136ZM195.022 97.3608C195.396 97.3608 195.704 97.2649 195.945 97.0732C196.187 96.8814 196.366 96.6293 196.482 96.3168C196.598 96.0043 196.656 95.6657 196.656 95.3011C196.656 94.9366 196.598 94.5968 196.482 94.282C196.366 93.9671 196.187 93.7126 195.945 93.5185C195.704 93.3243 195.396 93.2273 195.022 93.2273C194.648 93.2273 194.34 93.3243 194.099 93.5185C193.857 93.7126 193.679 93.9671 193.562 94.282C193.446 94.5968 193.388 94.9366 193.388 95.3011C193.388 95.6657 193.446 96.0043 193.562 96.3168C193.679 96.6293 193.857 96.8814 194.099 97.0732C194.34 97.2649 194.648 97.3608 195.022 97.3608ZM200.989 98.1136C200.477 98.1136 200.037 97.9929 199.668 97.7514C199.298 97.5099 199.014 97.1773 198.816 96.7536C198.617 96.3298 198.517 95.8456 198.517 95.3011C198.517 94.7472 198.619 94.2583 198.823 93.8345C199.029 93.4084 199.315 93.0758 199.682 92.8366C200.051 92.5952 200.482 92.4744 200.975 92.4744C201.358 92.4744 201.704 92.5455 202.012 92.6875C202.319 92.8295 202.571 93.0284 202.768 93.2841C202.964 93.5398 203.086 93.8381 203.134 94.179H202.296C202.232 93.9304 202.09 93.7102 201.869 93.5185C201.652 93.3243 201.358 93.2273 200.989 93.2273C200.662 93.2273 200.376 93.3125 200.129 93.483C199.886 93.651 199.695 93.889 199.558 94.1967C199.423 94.5021 199.355 94.8608 199.355 95.2727C199.355 95.6941 199.422 96.0611 199.554 96.3736C199.689 96.6861 199.878 96.9287 200.122 97.1016C200.369 97.2744 200.657 97.3608 200.989 97.3608C201.207 97.3608 201.404 97.3229 201.582 97.2472C201.759 97.1714 201.91 97.0625 202.033 96.9205C202.156 96.7784 202.244 96.608 202.296 96.4091H203.134C203.086 96.7311 202.969 97.0211 202.782 97.2791C202.597 97.5348 202.352 97.7384 202.047 97.8899C201.744 98.0391 201.391 98.1136 200.989 98.1136ZM205.14 96.0114L205.126 94.9744H205.296L207.683 92.5455H208.72L206.177 95.1165H206.106L205.14 96.0114ZM204.359 98V90.7273H205.197V98H204.359ZM207.825 98L205.694 95.3011L206.291 94.7188L208.89 98H207.825ZM213.562 98V98.7812H209.017V98H213.562ZM218.183 93.767L217.431 93.9801C217.383 93.8546 217.313 93.7327 217.221 93.6143C217.131 93.4936 217.008 93.3942 216.852 93.3161C216.695 93.2379 216.495 93.1989 216.252 93.1989C215.918 93.1989 215.64 93.2758 215.417 93.4297C215.197 93.5812 215.087 93.7741 215.087 94.0085C215.087 94.2169 215.163 94.3814 215.314 94.5021C215.466 94.6229 215.702 94.7235 216.024 94.804L216.834 95.0028C217.322 95.1212 217.685 95.3023 217.924 95.5462C218.163 95.7876 218.283 96.099 218.283 96.4801C218.283 96.7926 218.193 97.072 218.013 97.3182C217.835 97.5644 217.587 97.7585 217.267 97.9006C216.948 98.0426 216.576 98.1136 216.152 98.1136C215.596 98.1136 215.135 97.9929 214.771 97.7514C214.406 97.5099 214.175 97.1572 214.078 96.6932L214.874 96.4943C214.95 96.7879 215.093 97.008 215.303 97.1548C215.517 97.3016 215.795 97.375 216.138 97.375C216.529 97.375 216.839 97.2921 217.068 97.1264C217.3 96.9583 217.416 96.7571 217.416 96.5227C217.416 96.3333 217.35 96.1747 217.218 96.0469C217.085 95.9167 216.881 95.8196 216.607 95.7557L215.698 95.5426C215.198 95.4242 214.831 95.2408 214.597 94.9922C214.365 94.7412 214.249 94.4276 214.249 94.0511C214.249 93.7434 214.335 93.4711 214.508 93.2344C214.683 92.9976 214.921 92.8118 215.222 92.6768C215.525 92.5419 215.868 92.4744 216.252 92.4744C216.791 92.4744 217.215 92.5928 217.523 92.8295C217.833 93.0663 218.053 93.3788 218.183 93.767ZM219.544 98V92.5455H220.382V98H219.544ZM219.971 91.6364C219.807 91.6364 219.666 91.5807 219.548 91.4695C219.432 91.3582 219.374 91.2244 219.374 91.0682C219.374 90.9119 219.432 90.7782 219.548 90.6669C219.666 90.5556 219.807 90.5 219.971 90.5C220.134 90.5 220.274 90.5556 220.39 90.6669C220.508 90.7782 220.567 90.9119 220.567 91.0682C220.567 91.2244 220.508 91.3582 220.39 91.4695C220.274 91.5807 220.134 91.6364 219.971 91.6364ZM221.761 98V97.3608L224.858 93.3835V93.3267H221.861V92.5455H225.937V93.2131L222.926 97.1619V97.2188H226.037V98H221.761ZM229.458 98.1136C228.933 98.1136 228.479 97.9976 228.098 97.7656C227.719 97.5312 227.427 97.2045 227.221 96.7855C227.017 96.3641 226.916 95.8741 226.916 95.3153C226.916 94.7566 227.017 94.2642 227.221 93.8381C227.427 93.4096 227.713 93.0758 228.08 92.8366C228.45 92.5952 228.881 92.4744 229.373 92.4744C229.657 92.4744 229.938 92.5218 230.215 92.6165C230.492 92.7112 230.744 92.8651 230.971 93.0781C231.198 93.2888 231.379 93.5682 231.514 93.9162C231.649 94.2642 231.717 94.6927 231.717 95.2017V95.5568H227.512V94.8324H230.865C230.865 94.5246 230.803 94.25 230.68 94.0085C230.559 93.767 230.386 93.5765 230.161 93.4368C229.939 93.2971 229.676 93.2273 229.373 93.2273C229.039 93.2273 228.75 93.3101 228.507 93.4759C228.265 93.6392 228.079 93.8523 227.949 94.1151C227.819 94.3778 227.754 94.6596 227.754 94.9602V95.4432C227.754 95.8551 227.825 96.2043 227.967 96.4908C228.111 96.7749 228.311 96.9915 228.567 97.1406C228.823 97.2874 229.12 97.3608 229.458 97.3608C229.678 97.3608 229.877 97.33 230.055 97.2685C230.235 97.2045 230.39 97.1098 230.52 96.9844C230.65 96.8565 230.751 96.6979 230.822 96.5085L231.632 96.7358C231.546 97.0104 231.403 97.2519 231.202 97.4602C231.001 97.6662 230.752 97.8272 230.456 97.9432C230.16 98.0568 229.828 98.1136 229.458 98.1136Z"
          fill="black"/>
    <path d="M140.372 158.128C140.027 158.128 139.713 158.063 139.431 157.933C139.149 157.8 138.926 157.609 138.76 157.361C138.594 157.11 138.511 156.807 138.511 156.452C138.511 156.139 138.573 155.886 138.696 155.692C138.819 155.495 138.984 155.341 139.19 155.23C139.396 155.119 139.623 155.036 139.871 154.982C140.122 154.925 140.375 154.88 140.628 154.847C140.959 154.804 141.228 154.772 141.434 154.751C141.642 154.727 141.794 154.688 141.888 154.634C141.986 154.579 142.034 154.484 142.034 154.349V154.321C142.034 153.971 141.938 153.698 141.746 153.504C141.557 153.31 141.269 153.213 140.884 153.213C140.483 153.213 140.17 153.301 139.942 153.476C139.715 153.651 139.555 153.838 139.463 154.037L138.668 153.753C138.81 153.421 138.999 153.163 139.236 152.979C139.475 152.792 139.735 152.661 140.017 152.588C140.301 152.512 140.58 152.474 140.855 152.474C141.03 152.474 141.232 152.496 141.459 152.538C141.688 152.579 141.91 152.663 142.123 152.79C142.338 152.918 142.517 153.111 142.659 153.369C142.801 153.627 142.872 153.973 142.872 154.406V158H142.034V157.261H141.991C141.935 157.38 141.84 157.506 141.707 157.641C141.575 157.776 141.398 157.891 141.178 157.986C140.958 158.08 140.689 158.128 140.372 158.128ZM140.5 157.375C140.831 157.375 141.111 157.31 141.338 157.18C141.568 157.049 141.741 156.881 141.857 156.675C141.975 156.469 142.034 156.253 142.034 156.026V155.259C141.999 155.301 141.92 155.34 141.8 155.376C141.681 155.409 141.544 155.438 141.388 155.464C141.234 155.488 141.084 155.509 140.937 155.528C140.792 155.545 140.675 155.559 140.585 155.571C140.367 155.599 140.164 155.646 139.974 155.71C139.787 155.771 139.636 155.865 139.52 155.99C139.406 156.113 139.349 156.281 139.349 156.494C139.349 156.786 139.457 157.006 139.673 157.155C139.89 157.302 140.166 157.375 140.5 157.375ZM144.402 158V152.545H145.211V153.369H145.268C145.368 153.099 145.548 152.88 145.808 152.712C146.068 152.544 146.362 152.46 146.689 152.46C146.75 152.46 146.827 152.461 146.92 152.464C147.012 152.466 147.082 152.47 147.129 152.474V153.327C147.101 153.32 147.036 153.309 146.934 153.295C146.834 153.278 146.729 153.27 146.618 153.27C146.353 153.27 146.116 153.326 145.907 153.437C145.702 153.546 145.538 153.697 145.417 153.891C145.299 154.083 145.24 154.302 145.24 154.548V158H144.402ZM148.236 158V150.727H149.074V153.412H149.145C149.207 153.317 149.292 153.196 149.401 153.05C149.512 152.901 149.671 152.768 149.877 152.652C150.085 152.534 150.367 152.474 150.722 152.474C151.181 152.474 151.586 152.589 151.936 152.819C152.287 153.049 152.56 153.374 152.757 153.795C152.953 154.217 153.051 154.714 153.051 155.287C153.051 155.865 152.953 156.365 152.757 156.789C152.56 157.21 152.288 157.537 151.94 157.769C151.592 157.999 151.191 158.114 150.736 158.114C150.386 158.114 150.105 158.056 149.895 157.94C149.684 157.821 149.522 157.687 149.408 157.538C149.294 157.387 149.207 157.261 149.145 157.162H149.046V158H148.236ZM149.06 155.273C149.06 155.685 149.12 156.048 149.241 156.363C149.362 156.675 149.538 156.92 149.77 157.098C150.002 157.273 150.286 157.361 150.623 157.361C150.973 157.361 151.265 157.268 151.5 157.084C151.736 156.897 151.914 156.646 152.032 156.331C152.153 156.014 152.213 155.661 152.213 155.273C152.213 154.889 152.154 154.544 152.036 154.236C151.92 153.926 151.743 153.681 151.507 153.501C151.272 153.318 150.978 153.227 150.623 153.227C150.282 153.227 149.995 153.314 149.763 153.487C149.531 153.657 149.356 153.896 149.238 154.204C149.119 154.509 149.06 154.866 149.06 155.273ZM154.333 158V152.545H155.172V158H154.333ZM154.76 151.636C154.596 151.636 154.455 151.581 154.337 151.469C154.221 151.358 154.163 151.224 154.163 151.068C154.163 150.912 154.221 150.778 154.337 150.667C154.455 150.556 154.596 150.5 154.76 150.5C154.923 150.5 155.063 150.556 155.179 150.667C155.297 150.778 155.356 150.912 155.356 151.068C155.356 151.224 155.297 151.358 155.179 151.469C155.063 151.581 154.923 151.636 154.76 151.636ZM159.079 152.545V153.256H156.252V152.545H159.079ZM157.076 151.239H157.914V156.438C157.914 156.674 157.948 156.852 158.017 156.97C158.088 157.086 158.178 157.164 158.287 157.205C158.398 157.242 158.515 157.261 158.638 157.261C158.731 157.261 158.806 157.257 158.866 157.247C158.925 157.235 158.972 157.226 159.008 157.219L159.178 157.972C159.121 157.993 159.042 158.014 158.94 158.036C158.838 158.059 158.709 158.071 158.553 158.071C158.316 158.071 158.084 158.02 157.857 157.918C157.632 157.817 157.445 157.661 157.296 157.453C157.149 157.245 157.076 156.982 157.076 156.665V151.239ZM160.339 158V152.545H161.149V153.369H161.206C161.305 153.099 161.485 152.88 161.746 152.712C162.006 152.544 162.3 152.46 162.626 152.46C162.688 152.46 162.765 152.461 162.857 152.464C162.949 152.466 163.019 152.47 163.067 152.474V153.327C163.038 153.32 162.973 153.309 162.871 153.295C162.772 153.278 162.666 153.27 162.555 153.27C162.29 153.27 162.053 153.326 161.845 153.437C161.639 153.546 161.476 153.697 161.355 153.891C161.237 154.083 161.177 154.302 161.177 154.548V158H160.339ZM165.665 158.128C165.319 158.128 165.006 158.063 164.724 157.933C164.442 157.8 164.219 157.609 164.053 157.361C163.887 157.11 163.804 156.807 163.804 156.452C163.804 156.139 163.866 155.886 163.989 155.692C164.112 155.495 164.277 155.341 164.483 155.23C164.689 155.119 164.916 155.036 165.164 154.982C165.415 154.925 165.667 154.88 165.921 154.847C166.252 154.804 166.521 154.772 166.727 154.751C166.935 154.727 167.087 154.688 167.181 154.634C167.279 154.579 167.327 154.484 167.327 154.349V154.321C167.327 153.971 167.231 153.698 167.039 153.504C166.85 153.31 166.562 153.213 166.176 153.213C165.776 153.213 165.463 153.301 165.235 153.476C165.008 153.651 164.848 153.838 164.756 154.037L163.961 153.753C164.103 153.421 164.292 153.163 164.529 152.979C164.768 152.792 165.028 152.661 165.31 152.588C165.594 152.512 165.873 152.474 166.148 152.474C166.323 152.474 166.525 152.496 166.752 152.538C166.981 152.579 167.203 152.663 167.416 152.79C167.631 152.918 167.81 153.111 167.952 153.369C168.094 153.627 168.165 153.973 168.165 154.406V158H167.327V157.261H167.284C167.228 157.38 167.133 157.506 167 157.641C166.868 157.776 166.691 157.891 166.471 157.986C166.251 158.08 165.982 158.128 165.665 158.128ZM165.793 157.375C166.124 157.375 166.404 157.31 166.631 157.18C166.861 157.049 167.033 156.881 167.15 156.675C167.268 156.469 167.327 156.253 167.327 156.026V155.259C167.292 155.301 167.213 155.34 167.093 155.376C166.974 155.409 166.837 155.438 166.681 155.464C166.527 155.488 166.377 155.509 166.23 155.528C166.085 155.545 165.968 155.559 165.878 155.571C165.66 155.599 165.457 155.646 165.267 155.71C165.08 155.771 164.929 155.865 164.813 155.99C164.699 156.113 164.642 156.281 164.642 156.494C164.642 156.786 164.75 157.006 164.966 157.155C165.183 157.302 165.459 157.375 165.793 157.375ZM169.695 158V152.545H170.504V153.369H170.561C170.661 153.099 170.841 152.88 171.101 152.712C171.361 152.544 171.655 152.46 171.982 152.46C172.043 152.46 172.12 152.461 172.213 152.464C172.305 152.466 172.375 152.47 172.422 152.474V153.327C172.394 153.32 172.329 153.309 172.227 153.295C172.127 153.278 172.022 153.27 171.911 153.27C171.646 153.27 171.409 153.326 171.2 153.437C170.994 153.546 170.831 153.697 170.71 153.891C170.592 154.083 170.533 154.302 170.533 154.548V158H169.695ZM174.121 160.045C173.979 160.045 173.853 160.034 173.741 160.01C173.63 159.989 173.553 159.967 173.51 159.946L173.724 159.207C173.927 159.259 174.107 159.278 174.263 159.264C174.42 159.25 174.558 159.18 174.679 159.055C174.802 158.932 174.914 158.732 175.016 158.455L175.172 158.028L173.155 152.545H174.064L175.57 156.892H175.627L177.133 152.545H178.042L175.726 158.795C175.622 159.077 175.493 159.31 175.339 159.495C175.185 159.682 175.007 159.821 174.803 159.911C174.602 160 174.375 160.045 174.121 160.045ZM185.824 153.767L185.071 153.98C185.024 153.855 184.954 153.733 184.862 153.614C184.772 153.494 184.649 153.394 184.492 153.316C184.336 153.238 184.136 153.199 183.892 153.199C183.558 153.199 183.28 153.276 183.058 153.43C182.838 153.581 182.727 153.774 182.727 154.009C182.727 154.217 182.803 154.381 182.955 154.502C183.106 154.623 183.343 154.723 183.665 154.804L184.475 155.003C184.962 155.121 185.326 155.302 185.565 155.546C185.804 155.788 185.923 156.099 185.923 156.48C185.923 156.793 185.834 157.072 185.654 157.318C185.476 157.564 185.227 157.759 184.908 157.901C184.588 158.043 184.217 158.114 183.793 158.114C183.236 158.114 182.776 157.993 182.411 157.751C182.047 157.51 181.816 157.157 181.719 156.693L182.514 156.494C182.59 156.788 182.733 157.008 182.944 157.155C183.157 157.302 183.435 157.375 183.779 157.375C184.169 157.375 184.479 157.292 184.709 157.126C184.941 156.958 185.057 156.757 185.057 156.523C185.057 156.333 184.991 156.175 184.858 156.047C184.726 155.917 184.522 155.82 184.247 155.756L183.338 155.543C182.839 155.424 182.472 155.241 182.237 154.992C182.005 154.741 181.889 154.428 181.889 154.051C181.889 153.743 181.976 153.471 182.149 153.234C182.324 152.998 182.562 152.812 182.862 152.677C183.165 152.542 183.509 152.474 183.892 152.474C184.432 152.474 184.856 152.593 185.164 152.83C185.474 153.066 185.694 153.379 185.824 153.767ZM187.185 158V152.545H188.023V158H187.185ZM187.611 151.636C187.448 151.636 187.307 151.581 187.189 151.469C187.073 151.358 187.015 151.224 187.015 151.068C187.015 150.912 187.073 150.778 187.189 150.667C187.307 150.556 187.448 150.5 187.611 150.5C187.775 150.5 187.914 150.556 188.03 150.667C188.149 150.778 188.208 150.912 188.208 151.068C188.208 151.224 188.149 151.358 188.03 151.469C187.914 151.581 187.775 151.636 187.611 151.636ZM189.402 158V157.361L192.498 153.384V153.327H189.501V152.545H193.578V153.213L190.567 157.162V157.219H193.677V158H189.402ZM197.099 158.114C196.573 158.114 196.12 157.998 195.739 157.766C195.36 157.531 195.068 157.205 194.862 156.786C194.658 156.364 194.556 155.874 194.556 155.315C194.556 154.757 194.658 154.264 194.862 153.838C195.068 153.41 195.354 153.076 195.721 152.837C196.09 152.595 196.521 152.474 197.014 152.474C197.298 152.474 197.578 152.522 197.855 152.616C198.132 152.711 198.384 152.865 198.612 153.078C198.839 153.289 199.02 153.568 199.155 153.916C199.29 154.264 199.357 154.693 199.357 155.202V155.557H195.153V154.832H198.505C198.505 154.525 198.444 154.25 198.32 154.009C198.2 153.767 198.027 153.576 197.802 153.437C197.579 153.297 197.317 153.227 197.014 153.227C196.68 153.227 196.391 153.31 196.147 153.476C195.906 153.639 195.72 153.852 195.59 154.115C195.459 154.378 195.394 154.66 195.394 154.96V155.443C195.394 155.855 195.465 156.204 195.607 156.491C195.752 156.775 195.952 156.991 196.208 157.141C196.463 157.287 196.76 157.361 197.099 157.361C197.319 157.361 197.518 157.33 197.695 157.268C197.875 157.205 198.03 157.11 198.161 156.984C198.291 156.857 198.392 156.698 198.463 156.509L199.272 156.736C199.187 157.01 199.044 157.252 198.843 157.46C198.641 157.666 198.393 157.827 198.097 157.943C197.801 158.057 197.468 158.114 197.099 158.114Z"
          fill="black"/>
</svg>
